<?xml version="1.0" encoding="utf-8" standalone="no"?>
<!DOCTYPE svg PUBLIC "-//W3C//DTD SVG 1.1//EN"
  "http://www.w3.org/Graphics/SVG/1.1/DTD/svg11.dtd">
<!-- Created with matplotlib (https://matplotlib.org/) -->
<svg height="211.922187pt" version="1.1" viewBox="0 0 647.242891 211.922187" width="647.242891pt" xmlns="http://www.w3.org/2000/svg" xmlns:xlink="http://www.w3.org/1999/xlink">
 <metadata>
  <rdf:RDF xmlns:cc="http://creativecommons.org/ns#" xmlns:dc="http://purl.org/dc/elements/1.1/" xmlns:rdf="http://www.w3.org/1999/02/22-rdf-syntax-ns#">
   <cc:Work>
    <dc:type rdf:resource="http://purl.org/dc/dcmitype/StillImage"/>
    <dc:date>2022-02-01T17:07:38.783309</dc:date>
    <dc:format>image/svg+xml</dc:format>
    <dc:creator>
     <cc:Agent>
      <dc:title>Matplotlib v3.3.2, https://matplotlib.org/</dc:title>
     </cc:Agent>
    </dc:creator>
   </cc:Work>
  </rdf:RDF>
 </metadata>
 <defs>
  <style type="text/css">*{stroke-linecap:butt;stroke-linejoin:round;}</style>
 </defs>
 <g id="figure_1">
  <g id="patch_1">
   <path d="M 0 211.922187 
L 647.242891 211.922187 
L 647.242891 0 
L 0 0 
z
" style="fill:#ffffff;"/>
  </g>
  <g id="axes_1">
   <g id="patch_2">
    <path d="M 53.527813 166.336562 
L 200.268906 166.336562 
L 200.268906 28.479687 
L 53.527813 28.479687 
z
" style="fill:#ffffff;"/>
   </g>
   <g id="matplotlib.axis_1">
    <g id="xtick_1">
     <g id="line2d_1">
      <defs>
       <path d="M 0 0 
L 0 3.5 
" id="m6ddd6069d0" style="stroke:#000000;stroke-width:0.8;"/>
      </defs>
      <g>
       <use style="stroke:#000000;stroke-width:0.8;" x="60.197862" xlink:href="#m6ddd6069d0" y="166.336562"/>
      </g>
     </g>
     <g id="text_1">
      <!-- 0 -->
      <g transform="translate(56.718956 180.935)scale(0.1 -0.1)">
       <defs>
        <path d="M 46 36.53125 
Q 46 50.203125 43.4375 55.78125 
Q 40.875 61.375 34.8125 61.375 
Q 28.765625 61.375 26.171875 55.78125 
Q 23.578125 50.203125 23.578125 36.53125 
Q 23.578125 22.703125 26.171875 17.03125 
Q 28.765625 11.375 34.8125 11.375 
Q 40.828125 11.375 43.40625 17.03125 
Q 46 22.703125 46 36.53125 
z
M 64.796875 36.375 
Q 64.796875 18.265625 56.984375 8.421875 
Q 49.171875 -1.421875 34.8125 -1.421875 
Q 20.40625 -1.421875 12.59375 8.421875 
Q 4.78125 18.265625 4.78125 36.375 
Q 4.78125 54.546875 12.59375 64.375 
Q 20.40625 74.21875 34.8125 74.21875 
Q 49.171875 74.21875 56.984375 64.375 
Q 64.796875 54.546875 64.796875 36.375 
z
" id="DejaVuSans-Bold-48"/>
       </defs>
       <use xlink:href="#DejaVuSans-Bold-48"/>
      </g>
     </g>
    </g>
    <g id="xtick_2">
     <g id="line2d_2">
      <g>
       <use style="stroke:#000000;stroke-width:0.8;" x="129.677547" xlink:href="#m6ddd6069d0" y="166.336562"/>
      </g>
     </g>
     <g id="text_2">
      <!-- 50 -->
      <g transform="translate(122.719734 180.935)scale(0.1 -0.1)">
       <defs>
        <path d="M 10.59375 72.90625 
L 57.328125 72.90625 
L 57.328125 59.078125 
L 25.59375 59.078125 
L 25.59375 47.796875 
Q 27.734375 48.390625 29.90625 48.703125 
Q 32.078125 49.03125 34.421875 49.03125 
Q 47.75 49.03125 55.171875 42.359375 
Q 62.59375 35.6875 62.59375 23.78125 
Q 62.59375 11.96875 54.515625 5.265625 
Q 46.4375 -1.421875 32.078125 -1.421875 
Q 25.875 -1.421875 19.796875 -0.21875 
Q 13.71875 0.984375 7.71875 3.421875 
L 7.71875 18.21875 
Q 13.671875 14.796875 19.015625 13.078125 
Q 24.359375 11.375 29.109375 11.375 
Q 35.9375 11.375 39.859375 14.71875 
Q 43.796875 18.0625 43.796875 23.78125 
Q 43.796875 29.546875 39.859375 32.859375 
Q 35.9375 36.1875 29.109375 36.1875 
Q 25.046875 36.1875 20.453125 35.125 
Q 15.875 34.078125 10.59375 31.890625 
z
" id="DejaVuSans-Bold-53"/>
       </defs>
       <use xlink:href="#DejaVuSans-Bold-53"/>
       <use x="69.580078" xlink:href="#DejaVuSans-Bold-48"/>
      </g>
     </g>
    </g>
    <g id="xtick_3">
     <g id="line2d_3">
      <g>
       <use style="stroke:#000000;stroke-width:0.8;" x="199.157231" xlink:href="#m6ddd6069d0" y="166.336562"/>
      </g>
     </g>
     <g id="text_3">
      <!-- 100 -->
      <g transform="translate(188.720512 180.935)scale(0.1 -0.1)">
       <defs>
        <path d="M 11.71875 12.984375 
L 28.328125 12.984375 
L 28.328125 60.109375 
L 11.28125 56.59375 
L 11.28125 69.390625 
L 28.21875 72.90625 
L 46.09375 72.90625 
L 46.09375 12.984375 
L 62.703125 12.984375 
L 62.703125 0 
L 11.71875 0 
z
" id="DejaVuSans-Bold-49"/>
       </defs>
       <use xlink:href="#DejaVuSans-Bold-49"/>
       <use x="69.580078" xlink:href="#DejaVuSans-Bold-48"/>
       <use x="139.160156" xlink:href="#DejaVuSans-Bold-48"/>
      </g>
     </g>
    </g>
    <g id="text_4">
     <!-- Time Post-Plating (hours) -->
     <g transform="translate(40.127109 202.132812)scale(0.12 -0.12)">
      <defs>
       <path d="M 0.484375 72.90625 
L 67.671875 72.90625 
L 67.671875 58.6875 
L 43.5 58.6875 
L 43.5 0 
L 24.703125 0 
L 24.703125 58.6875 
L 0.484375 58.6875 
z
" id="DejaVuSans-Bold-84"/>
       <path d="M 8.40625 54.6875 
L 25.875 54.6875 
L 25.875 0 
L 8.40625 0 
z
M 8.40625 75.984375 
L 25.875 75.984375 
L 25.875 61.71875 
L 8.40625 61.71875 
z
" id="DejaVuSans-Bold-105"/>
       <path d="M 59.078125 45.609375 
Q 62.40625 50.6875 66.96875 53.34375 
Q 71.53125 56 77 56 
Q 86.421875 56 91.359375 50.1875 
Q 96.296875 44.390625 96.296875 33.296875 
L 96.296875 0 
L 78.71875 0 
L 78.71875 28.515625 
Q 78.765625 29.15625 78.78125 29.828125 
Q 78.8125 30.515625 78.8125 31.78125 
Q 78.8125 37.59375 77.09375 40.203125 
Q 75.390625 42.828125 71.578125 42.828125 
Q 66.609375 42.828125 63.890625 38.71875 
Q 61.1875 34.625 61.078125 26.859375 
L 61.078125 0 
L 43.5 0 
L 43.5 28.515625 
Q 43.5 37.59375 41.9375 40.203125 
Q 40.375 42.828125 36.375 42.828125 
Q 31.34375 42.828125 28.609375 38.703125 
Q 25.875 34.578125 25.875 26.90625 
L 25.875 0 
L 8.296875 0 
L 8.296875 54.6875 
L 25.875 54.6875 
L 25.875 46.6875 
Q 29.109375 51.3125 33.28125 53.65625 
Q 37.453125 56 42.484375 56 
Q 48.140625 56 52.484375 53.265625 
Q 56.84375 50.53125 59.078125 45.609375 
z
" id="DejaVuSans-Bold-109"/>
       <path d="M 62.984375 27.484375 
L 62.984375 22.515625 
L 22.125 22.515625 
Q 22.75 16.359375 26.5625 13.28125 
Q 30.375 10.203125 37.203125 10.203125 
Q 42.71875 10.203125 48.5 11.84375 
Q 54.296875 13.484375 60.40625 16.796875 
L 60.40625 3.328125 
Q 54.203125 0.984375 48 -0.21875 
Q 41.796875 -1.421875 35.59375 -1.421875 
Q 20.75 -1.421875 12.515625 6.125 
Q 4.296875 13.671875 4.296875 27.296875 
Q 4.296875 40.671875 12.375 48.328125 
Q 20.453125 56 34.625 56 
Q 47.515625 56 55.25 48.234375 
Q 62.984375 40.484375 62.984375 27.484375 
z
M 45.015625 33.296875 
Q 45.015625 38.28125 42.109375 41.328125 
Q 39.203125 44.390625 34.515625 44.390625 
Q 29.4375 44.390625 26.265625 41.53125 
Q 23.09375 38.671875 22.3125 33.296875 
z
" id="DejaVuSans-Bold-101"/>
       <path id="DejaVuSans-Bold-32"/>
       <path d="M 9.1875 72.90625 
L 40.375 72.90625 
Q 54.296875 72.90625 61.734375 66.71875 
Q 69.1875 60.546875 69.1875 49.125 
Q 69.1875 37.640625 61.734375 31.46875 
Q 54.296875 25.296875 40.375 25.296875 
L 27.984375 25.296875 
L 27.984375 0 
L 9.1875 0 
z
M 27.984375 59.28125 
L 27.984375 38.921875 
L 38.375 38.921875 
Q 43.84375 38.921875 46.828125 41.578125 
Q 49.8125 44.234375 49.8125 49.125 
Q 49.8125 54 46.828125 56.640625 
Q 43.84375 59.28125 38.375 59.28125 
z
" id="DejaVuSans-Bold-80"/>
       <path d="M 34.421875 43.5 
Q 28.609375 43.5 25.5625 39.328125 
Q 22.515625 35.15625 22.515625 27.296875 
Q 22.515625 19.4375 25.5625 15.25 
Q 28.609375 11.078125 34.421875 11.078125 
Q 40.140625 11.078125 43.15625 15.25 
Q 46.1875 19.4375 46.1875 27.296875 
Q 46.1875 35.15625 43.15625 39.328125 
Q 40.140625 43.5 34.421875 43.5 
z
M 34.421875 56 
Q 48.53125 56 56.46875 48.375 
Q 64.40625 40.765625 64.40625 27.296875 
Q 64.40625 13.8125 56.46875 6.1875 
Q 48.53125 -1.421875 34.421875 -1.421875 
Q 20.265625 -1.421875 12.28125 6.1875 
Q 4.296875 13.8125 4.296875 27.296875 
Q 4.296875 40.765625 12.28125 48.375 
Q 20.265625 56 34.421875 56 
z
" id="DejaVuSans-Bold-111"/>
       <path d="M 51.125 52.984375 
L 51.125 39.703125 
Q 45.515625 42.046875 40.28125 43.21875 
Q 35.0625 44.390625 30.421875 44.390625 
Q 25.4375 44.390625 23.015625 43.140625 
Q 20.609375 41.890625 20.609375 39.3125 
Q 20.609375 37.203125 22.4375 36.078125 
Q 24.265625 34.96875 29 34.421875 
L 32.078125 33.984375 
Q 45.515625 32.28125 50.140625 28.375 
Q 54.78125 24.46875 54.78125 16.109375 
Q 54.78125 7.375 48.328125 2.96875 
Q 41.890625 -1.421875 29.109375 -1.421875 
Q 23.6875 -1.421875 17.890625 -0.5625 
Q 12.109375 0.296875 6 2 
L 6 15.28125 
Q 11.234375 12.75 16.71875 11.46875 
Q 22.21875 10.203125 27.875 10.203125 
Q 33.015625 10.203125 35.59375 11.609375 
Q 38.1875 13.03125 38.1875 15.828125 
Q 38.1875 18.171875 36.40625 19.3125 
Q 34.625 20.453125 29.296875 21.09375 
L 26.21875 21.484375 
Q 14.546875 22.953125 9.859375 26.90625 
Q 5.171875 30.859375 5.171875 38.921875 
Q 5.171875 47.609375 11.125 51.796875 
Q 17.09375 56 29.390625 56 
Q 34.234375 56 39.546875 55.265625 
Q 44.875 54.546875 51.125 52.984375 
z
" id="DejaVuSans-Bold-115"/>
       <path d="M 27.484375 70.21875 
L 27.484375 54.6875 
L 45.515625 54.6875 
L 45.515625 42.1875 
L 27.484375 42.1875 
L 27.484375 19 
Q 27.484375 15.1875 29 13.84375 
Q 30.515625 12.5 35.015625 12.5 
L 44 12.5 
L 44 0 
L 29 0 
Q 18.65625 0 14.328125 4.3125 
Q 10.015625 8.640625 10.015625 19 
L 10.015625 42.1875 
L 1.3125 42.1875 
L 1.3125 54.6875 
L 10.015625 54.6875 
L 10.015625 70.21875 
z
" id="DejaVuSans-Bold-116"/>
       <path d="M 5.421875 35.890625 
L 36.078125 35.890625 
L 36.078125 21.6875 
L 5.421875 21.6875 
z
" id="DejaVuSans-Bold-45"/>
       <path d="M 8.40625 75.984375 
L 25.875 75.984375 
L 25.875 0 
L 8.40625 0 
z
" id="DejaVuSans-Bold-108"/>
       <path d="M 32.90625 24.609375 
Q 27.4375 24.609375 24.671875 22.75 
Q 21.921875 20.90625 21.921875 17.28125 
Q 21.921875 13.96875 24.140625 12.078125 
Q 26.375 10.203125 30.328125 10.203125 
Q 35.25 10.203125 38.625 13.734375 
Q 42 17.28125 42 22.609375 
L 42 24.609375 
z
M 59.625 31.203125 
L 59.625 0 
L 42 0 
L 42 8.109375 
Q 38.484375 3.125 34.078125 0.84375 
Q 29.6875 -1.421875 23.390625 -1.421875 
Q 14.890625 -1.421875 9.59375 3.53125 
Q 4.296875 8.5 4.296875 16.40625 
Q 4.296875 26.03125 10.90625 30.515625 
Q 17.53125 35.015625 31.6875 35.015625 
L 42 35.015625 
L 42 36.375 
Q 42 40.53125 38.71875 42.453125 
Q 35.453125 44.390625 28.515625 44.390625 
Q 22.90625 44.390625 18.0625 43.265625 
Q 13.234375 42.140625 9.078125 39.890625 
L 9.078125 53.21875 
Q 14.703125 54.59375 20.359375 55.296875 
Q 26.03125 56 31.6875 56 
Q 46.484375 56 53.046875 50.171875 
Q 59.625 44.34375 59.625 31.203125 
z
" id="DejaVuSans-Bold-97"/>
       <path d="M 63.375 33.296875 
L 63.375 0 
L 45.796875 0 
L 45.796875 5.421875 
L 45.796875 25.484375 
Q 45.796875 32.5625 45.484375 35.25 
Q 45.171875 37.9375 44.390625 39.203125 
Q 43.359375 40.921875 41.59375 41.875 
Q 39.84375 42.828125 37.59375 42.828125 
Q 32.125 42.828125 29 38.59375 
Q 25.875 34.375 25.875 26.90625 
L 25.875 0 
L 8.40625 0 
L 8.40625 54.6875 
L 25.875 54.6875 
L 25.875 46.6875 
Q 29.828125 51.46875 34.265625 53.734375 
Q 38.71875 56 44.09375 56 
Q 53.5625 56 58.46875 50.1875 
Q 63.375 44.390625 63.375 33.296875 
z
" id="DejaVuSans-Bold-110"/>
       <path d="M 45.609375 9.28125 
Q 42 4.5 37.640625 2.25 
Q 33.296875 0 27.59375 0 
Q 17.578125 0 11.03125 7.875 
Q 4.5 15.765625 4.5 27.984375 
Q 4.5 40.234375 11.03125 48.0625 
Q 17.578125 55.90625 27.59375 55.90625 
Q 33.296875 55.90625 37.640625 53.65625 
Q 42 51.421875 45.609375 46.578125 
L 45.609375 54.6875 
L 63.1875 54.6875 
L 63.1875 5.515625 
Q 63.1875 -7.671875 54.859375 -14.625 
Q 46.53125 -21.578125 30.71875 -21.578125 
Q 25.59375 -21.578125 20.796875 -20.796875 
Q 16.015625 -20.015625 11.1875 -18.40625 
L 11.1875 -4.78125 
Q 15.765625 -7.421875 20.15625 -8.71875 
Q 24.5625 -10.015625 29 -10.015625 
Q 37.59375 -10.015625 41.59375 -6.25 
Q 45.609375 -2.484375 45.609375 5.515625 
z
M 34.078125 43.3125 
Q 28.65625 43.3125 25.625 39.296875 
Q 22.609375 35.296875 22.609375 27.984375 
Q 22.609375 20.453125 25.53125 16.578125 
Q 28.46875 12.703125 34.078125 12.703125 
Q 39.546875 12.703125 42.578125 16.703125 
Q 45.609375 20.703125 45.609375 27.984375 
Q 45.609375 35.296875 42.578125 39.296875 
Q 39.546875 43.3125 34.078125 43.3125 
z
" id="DejaVuSans-Bold-103"/>
       <path d="M 37.703125 -13.1875 
L 23.1875 -13.1875 
Q 15.71875 -1.125 12.15625 9.734375 
Q 8.59375 20.609375 8.59375 31.296875 
Q 8.59375 42 12.171875 52.953125 
Q 15.765625 63.921875 23.1875 75.875 
L 37.703125 75.875 
Q 31.453125 64.3125 28.328125 53.25 
Q 25.203125 42.1875 25.203125 31.390625 
Q 25.203125 20.609375 28.296875 9.515625 
Q 31.390625 -1.5625 37.703125 -13.1875 
z
" id="DejaVuSans-Bold-40"/>
       <path d="M 63.375 33.296875 
L 63.375 0 
L 45.796875 0 
L 45.796875 5.421875 
L 45.796875 25.390625 
Q 45.796875 32.5625 45.484375 35.25 
Q 45.171875 37.9375 44.390625 39.203125 
Q 43.359375 40.921875 41.59375 41.875 
Q 39.84375 42.828125 37.59375 42.828125 
Q 32.125 42.828125 29 38.59375 
Q 25.875 34.375 25.875 26.90625 
L 25.875 0 
L 8.40625 0 
L 8.40625 75.984375 
L 25.875 75.984375 
L 25.875 46.6875 
Q 29.828125 51.46875 34.265625 53.734375 
Q 38.71875 56 44.09375 56 
Q 53.5625 56 58.46875 50.1875 
Q 63.375 44.390625 63.375 33.296875 
z
" id="DejaVuSans-Bold-104"/>
       <path d="M 7.8125 21.296875 
L 7.8125 54.6875 
L 25.390625 54.6875 
L 25.390625 49.21875 
Q 25.390625 44.78125 25.34375 38.0625 
Q 25.296875 31.34375 25.296875 29.109375 
Q 25.296875 22.515625 25.640625 19.609375 
Q 25.984375 16.703125 26.8125 15.375 
Q 27.875 13.671875 29.609375 12.734375 
Q 31.34375 11.8125 33.59375 11.8125 
Q 39.0625 11.8125 42.1875 16.015625 
Q 45.3125 20.21875 45.3125 27.6875 
L 45.3125 54.6875 
L 62.796875 54.6875 
L 62.796875 0 
L 45.3125 0 
L 45.3125 7.90625 
Q 41.359375 3.125 36.9375 0.84375 
Q 32.515625 -1.421875 27.203125 -1.421875 
Q 17.71875 -1.421875 12.765625 4.390625 
Q 7.8125 10.203125 7.8125 21.296875 
z
" id="DejaVuSans-Bold-117"/>
       <path d="M 49.03125 39.796875 
Q 46.734375 40.875 44.453125 41.375 
Q 42.1875 41.890625 39.890625 41.890625 
Q 33.15625 41.890625 29.515625 37.5625 
Q 25.875 33.25 25.875 25.203125 
L 25.875 0 
L 8.40625 0 
L 8.40625 54.6875 
L 25.875 54.6875 
L 25.875 45.703125 
Q 29.25 51.078125 33.609375 53.53125 
Q 37.984375 56 44.09375 56 
Q 44.96875 56 45.984375 55.921875 
Q 47.015625 55.859375 48.96875 55.609375 
z
" id="DejaVuSans-Bold-114"/>
       <path d="M 8.015625 -13.1875 
Q 14.265625 -1.5625 17.390625 9.515625 
Q 20.515625 20.609375 20.515625 31.390625 
Q 20.515625 42.1875 17.390625 53.25 
Q 14.265625 64.3125 8.015625 75.875 
L 22.515625 75.875 
Q 29.9375 63.921875 33.515625 52.953125 
Q 37.109375 42 37.109375 31.296875 
Q 37.109375 20.609375 33.546875 9.734375 
Q 29.984375 -1.125 22.515625 -13.1875 
z
" id="DejaVuSans-Bold-41"/>
      </defs>
      <use xlink:href="#DejaVuSans-Bold-84"/>
      <use x="68.212891" xlink:href="#DejaVuSans-Bold-105"/>
      <use x="102.490234" xlink:href="#DejaVuSans-Bold-109"/>
      <use x="206.689453" xlink:href="#DejaVuSans-Bold-101"/>
      <use x="274.511719" xlink:href="#DejaVuSans-Bold-32"/>
      <use x="309.326172" xlink:href="#DejaVuSans-Bold-80"/>
      <use x="382.617188" xlink:href="#DejaVuSans-Bold-111"/>
      <use x="451.318359" xlink:href="#DejaVuSans-Bold-115"/>
      <use x="510.839844" xlink:href="#DejaVuSans-Bold-116"/>
      <use x="558.642578" xlink:href="#DejaVuSans-Bold-45"/>
      <use x="600.146484" xlink:href="#DejaVuSans-Bold-80"/>
      <use x="673.4375" xlink:href="#DejaVuSans-Bold-108"/>
      <use x="707.714844" xlink:href="#DejaVuSans-Bold-97"/>
      <use x="775.195312" xlink:href="#DejaVuSans-Bold-116"/>
      <use x="822.998047" xlink:href="#DejaVuSans-Bold-105"/>
      <use x="857.275391" xlink:href="#DejaVuSans-Bold-110"/>
      <use x="928.466797" xlink:href="#DejaVuSans-Bold-103"/>
      <use x="1000.048828" xlink:href="#DejaVuSans-Bold-32"/>
      <use x="1034.863281" xlink:href="#DejaVuSans-Bold-40"/>
      <use x="1080.566406" xlink:href="#DejaVuSans-Bold-104"/>
      <use x="1151.757812" xlink:href="#DejaVuSans-Bold-111"/>
      <use x="1220.458984" xlink:href="#DejaVuSans-Bold-117"/>
      <use x="1291.650391" xlink:href="#DejaVuSans-Bold-114"/>
      <use x="1340.966797" xlink:href="#DejaVuSans-Bold-115"/>
      <use x="1400.488281" xlink:href="#DejaVuSans-Bold-41"/>
     </g>
    </g>
   </g>
   <g id="matplotlib.axis_2">
    <g id="ytick_1">
     <g id="line2d_4">
      <defs>
       <path d="M 0 0 
L -3.5 0 
" id="m3c1413916b" style="stroke:#000000;stroke-width:0.8;"/>
      </defs>
      <g>
       <use style="stroke:#000000;stroke-width:0.8;" x="53.527813" xlink:href="#m3c1413916b" y="164.111623"/>
      </g>
     </g>
     <g id="text_5">
      <!-- 0.0 -->
      <g transform="translate(28.81375 167.910842)scale(0.1 -0.1)">
       <defs>
        <path d="M 10.203125 18.890625 
L 27.78125 18.890625 
L 27.78125 0 
L 10.203125 0 
z
" id="DejaVuSans-Bold-46"/>
       </defs>
       <use xlink:href="#DejaVuSans-Bold-48"/>
       <use x="69.580078" xlink:href="#DejaVuSans-Bold-46"/>
       <use x="107.568359" xlink:href="#DejaVuSans-Bold-48"/>
      </g>
     </g>
    </g>
    <g id="ytick_2">
     <g id="line2d_5">
      <g>
       <use style="stroke:#000000;stroke-width:0.8;" x="53.527813" xlink:href="#m3c1413916b" y="124.850487"/>
      </g>
     </g>
     <g id="text_6">
      <!-- 0.5 -->
      <g transform="translate(28.81375 128.649706)scale(0.1 -0.1)">
       <use xlink:href="#DejaVuSans-Bold-48"/>
       <use x="69.580078" xlink:href="#DejaVuSans-Bold-46"/>
       <use x="107.568359" xlink:href="#DejaVuSans-Bold-53"/>
      </g>
     </g>
    </g>
    <g id="ytick_3">
     <g id="line2d_6">
      <g>
       <use style="stroke:#000000;stroke-width:0.8;" x="53.527813" xlink:href="#m3c1413916b" y="85.589351"/>
      </g>
     </g>
     <g id="text_7">
      <!-- 1.0 -->
      <g transform="translate(28.81375 89.388569)scale(0.1 -0.1)">
       <use xlink:href="#DejaVuSans-Bold-49"/>
       <use x="69.580078" xlink:href="#DejaVuSans-Bold-46"/>
       <use x="107.568359" xlink:href="#DejaVuSans-Bold-48"/>
      </g>
     </g>
    </g>
    <g id="ytick_4">
     <g id="line2d_7">
      <g>
       <use style="stroke:#000000;stroke-width:0.8;" x="53.527813" xlink:href="#m3c1413916b" y="46.328215"/>
      </g>
     </g>
     <g id="text_8">
      <!-- 1.5 -->
      <g transform="translate(28.81375 50.127433)scale(0.1 -0.1)">
       <use xlink:href="#DejaVuSans-Bold-49"/>
       <use x="69.580078" xlink:href="#DejaVuSans-Bold-46"/>
       <use x="107.568359" xlink:href="#DejaVuSans-Bold-53"/>
      </g>
     </g>
    </g>
    <g id="text_9">
     <!-- Relative DsRE2 Expression -->
     <g transform="translate(16.318125 187.61625)rotate(-90)scale(0.12 -0.12)">
      <defs>
       <path d="M 35.890625 40.578125 
Q 41.796875 40.578125 44.359375 42.765625 
Q 46.921875 44.96875 46.921875 50 
Q 46.921875 54.984375 44.359375 57.125 
Q 41.796875 59.28125 35.890625 59.28125 
L 27.984375 59.28125 
L 27.984375 40.578125 
z
M 27.984375 27.59375 
L 27.984375 0 
L 9.1875 0 
L 9.1875 72.90625 
L 37.890625 72.90625 
Q 52.296875 72.90625 59 68.0625 
Q 65.71875 63.234375 65.71875 52.78125 
Q 65.71875 45.5625 62.21875 40.921875 
Q 58.734375 36.28125 51.703125 34.078125 
Q 55.5625 33.203125 58.609375 30.09375 
Q 61.671875 27 64.796875 20.703125 
L 75 0 
L 54.984375 0 
L 46.09375 18.109375 
Q 43.40625 23.578125 40.640625 25.578125 
Q 37.890625 27.59375 33.296875 27.59375 
z
" id="DejaVuSans-Bold-82"/>
       <path d="M 1.515625 54.6875 
L 19 54.6875 
L 32.625 16.890625 
L 46.1875 54.6875 
L 63.71875 54.6875 
L 42.1875 0 
L 23 0 
z
" id="DejaVuSans-Bold-118"/>
       <path d="M 27.984375 58.6875 
L 27.984375 14.203125 
L 34.71875 14.203125 
Q 46.234375 14.203125 52.3125 19.921875 
Q 58.40625 25.640625 58.40625 36.53125 
Q 58.40625 47.359375 52.34375 53.015625 
Q 46.296875 58.6875 34.71875 58.6875 
z
M 9.1875 72.90625 
L 29 72.90625 
Q 45.609375 72.90625 53.734375 70.53125 
Q 61.859375 68.171875 67.671875 62.5 
Q 72.796875 57.5625 75.28125 51.109375 
Q 77.78125 44.671875 77.78125 36.53125 
Q 77.78125 28.265625 75.28125 21.796875 
Q 72.796875 15.328125 67.671875 10.40625 
Q 61.8125 4.734375 53.609375 2.359375 
Q 45.40625 0 29 0 
L 9.1875 0 
z
" id="DejaVuSans-Bold-68"/>
       <path d="M 9.1875 72.90625 
L 59.90625 72.90625 
L 59.90625 58.6875 
L 27.984375 58.6875 
L 27.984375 45.125 
L 58.015625 45.125 
L 58.015625 30.90625 
L 27.984375 30.90625 
L 27.984375 14.203125 
L 60.984375 14.203125 
L 60.984375 0 
L 9.1875 0 
z
" id="DejaVuSans-Bold-69"/>
       <path d="M 28.8125 13.8125 
L 60.890625 13.8125 
L 60.890625 0 
L 7.90625 0 
L 7.90625 13.8125 
L 34.515625 37.3125 
Q 38.09375 40.53125 39.796875 43.609375 
Q 41.5 46.6875 41.5 50 
Q 41.5 55.125 38.0625 58.25 
Q 34.625 61.375 28.90625 61.375 
Q 24.515625 61.375 19.28125 59.5 
Q 14.0625 57.625 8.109375 53.90625 
L 8.109375 69.921875 
Q 14.453125 72.015625 20.65625 73.109375 
Q 26.859375 74.21875 32.8125 74.21875 
Q 45.90625 74.21875 53.15625 68.453125 
Q 60.40625 62.703125 60.40625 52.390625 
Q 60.40625 46.4375 57.328125 41.28125 
Q 54.25 36.140625 44.390625 27.484375 
z
" id="DejaVuSans-Bold-50"/>
       <path d="M 22.21875 27.984375 
L 2.484375 54.6875 
L 21 54.6875 
L 32.171875 38.484375 
L 43.5 54.6875 
L 62.015625 54.6875 
L 42.28125 28.078125 
L 62.984375 0 
L 44.484375 0 
L 32.171875 17.28125 
L 20.015625 0 
L 1.515625 0 
z
" id="DejaVuSans-Bold-120"/>
       <path d="M 25.875 7.90625 
L 25.875 -20.796875 
L 8.40625 -20.796875 
L 8.40625 54.6875 
L 25.875 54.6875 
L 25.875 46.6875 
Q 29.5 51.46875 33.890625 53.734375 
Q 38.28125 56 44 56 
Q 54.109375 56 60.59375 47.96875 
Q 67.09375 39.9375 67.09375 27.296875 
Q 67.09375 14.65625 60.59375 6.609375 
Q 54.109375 -1.421875 44 -1.421875 
Q 38.28125 -1.421875 33.890625 0.84375 
Q 29.5 3.125 25.875 7.90625 
z
M 37.5 43.3125 
Q 31.890625 43.3125 28.875 39.1875 
Q 25.875 35.0625 25.875 27.296875 
Q 25.875 19.53125 28.875 15.40625 
Q 31.890625 11.28125 37.5 11.28125 
Q 43.109375 11.28125 46.0625 15.375 
Q 49.03125 19.484375 49.03125 27.296875 
Q 49.03125 35.109375 46.0625 39.203125 
Q 43.109375 43.3125 37.5 43.3125 
z
" id="DejaVuSans-Bold-112"/>
      </defs>
      <use xlink:href="#DejaVuSans-Bold-82"/>
      <use x="77.001953" xlink:href="#DejaVuSans-Bold-101"/>
      <use x="144.824219" xlink:href="#DejaVuSans-Bold-108"/>
      <use x="179.101562" xlink:href="#DejaVuSans-Bold-97"/>
      <use x="246.582031" xlink:href="#DejaVuSans-Bold-116"/>
      <use x="294.384766" xlink:href="#DejaVuSans-Bold-105"/>
      <use x="328.662109" xlink:href="#DejaVuSans-Bold-118"/>
      <use x="393.847656" xlink:href="#DejaVuSans-Bold-101"/>
      <use x="461.669922" xlink:href="#DejaVuSans-Bold-32"/>
      <use x="496.484375" xlink:href="#DejaVuSans-Bold-68"/>
      <use x="579.492188" xlink:href="#DejaVuSans-Bold-115"/>
      <use x="639.013672" xlink:href="#DejaVuSans-Bold-82"/>
      <use x="716.015625" xlink:href="#DejaVuSans-Bold-69"/>
      <use x="784.326172" xlink:href="#DejaVuSans-Bold-50"/>
      <use x="853.90625" xlink:href="#DejaVuSans-Bold-32"/>
      <use x="888.720703" xlink:href="#DejaVuSans-Bold-69"/>
      <use x="957.03125" xlink:href="#DejaVuSans-Bold-120"/>
      <use x="1021.533203" xlink:href="#DejaVuSans-Bold-112"/>
      <use x="1093.115234" xlink:href="#DejaVuSans-Bold-114"/>
      <use x="1142.431641" xlink:href="#DejaVuSans-Bold-101"/>
      <use x="1210.253906" xlink:href="#DejaVuSans-Bold-115"/>
      <use x="1269.775391" xlink:href="#DejaVuSans-Bold-115"/>
      <use x="1329.296875" xlink:href="#DejaVuSans-Bold-105"/>
      <use x="1363.574219" xlink:href="#DejaVuSans-Bold-111"/>
      <use x="1432.275391" xlink:href="#DejaVuSans-Bold-110"/>
     </g>
    </g>
   </g>
   <g id="LineCollection_1">
    <path clip-path="url(#pfdee33f9b8)" d="M 60.197862 160.070341 
L 60.197862 159.855135 
" style="fill:none;stroke:#56b4e9;stroke-width:2;"/>
    <path clip-path="url(#pfdee33f9b8)" d="M 93.548111 112.858085 
L 93.548111 108.633018 
" style="fill:none;stroke:#56b4e9;stroke-width:2;"/>
    <path clip-path="url(#pfdee33f9b8)" d="M 126.898359 77.38042 
L 126.898359 67.964784 
" style="fill:none;stroke:#56b4e9;stroke-width:2;"/>
    <path clip-path="url(#pfdee33f9b8)" d="M 160.248608 50.720695 
L 160.248608 45.317579 
" style="fill:none;stroke:#56b4e9;stroke-width:2;"/>
    <path clip-path="url(#pfdee33f9b8)" d="M 193.598856 38.347541 
L 193.598856 34.745909 
" style="fill:none;stroke:#56b4e9;stroke-width:2;"/>
   </g>
   <g id="LineCollection_2">
    <path clip-path="url(#pfdee33f9b8)" d="M 60.197862 157.791765 
L 60.197862 157.575166 
" style="fill:none;stroke:#000000;stroke-width:2;"/>
   </g>
   <g id="line2d_8">
    <defs>
     <path d="M 2 0 
L -2 -0 
" id="m3ab5666b19" style="stroke:#56b4e9;"/>
    </defs>
    <g clip-path="url(#pfdee33f9b8)">
     <use style="fill:#56b4e9;stroke:#56b4e9;" x="60.197862" xlink:href="#m3ab5666b19" y="160.070341"/>
     <use style="fill:#56b4e9;stroke:#56b4e9;" x="93.548111" xlink:href="#m3ab5666b19" y="112.858085"/>
     <use style="fill:#56b4e9;stroke:#56b4e9;" x="126.898359" xlink:href="#m3ab5666b19" y="77.38042"/>
     <use style="fill:#56b4e9;stroke:#56b4e9;" x="160.248608" xlink:href="#m3ab5666b19" y="50.720695"/>
     <use style="fill:#56b4e9;stroke:#56b4e9;" x="193.598856" xlink:href="#m3ab5666b19" y="38.347541"/>
    </g>
   </g>
   <g id="line2d_9">
    <g clip-path="url(#pfdee33f9b8)">
     <use style="fill:#56b4e9;stroke:#56b4e9;" x="60.197862" xlink:href="#m3ab5666b19" y="159.855135"/>
     <use style="fill:#56b4e9;stroke:#56b4e9;" x="93.548111" xlink:href="#m3ab5666b19" y="108.633018"/>
     <use style="fill:#56b4e9;stroke:#56b4e9;" x="126.898359" xlink:href="#m3ab5666b19" y="67.964784"/>
     <use style="fill:#56b4e9;stroke:#56b4e9;" x="160.248608" xlink:href="#m3ab5666b19" y="45.317579"/>
     <use style="fill:#56b4e9;stroke:#56b4e9;" x="193.598856" xlink:href="#m3ab5666b19" y="34.745909"/>
    </g>
   </g>
   <g id="line2d_10">
    <defs>
     <path d="M 2 0 
L -2 -0 
" id="ma21c457691" style="stroke:#000000;"/>
    </defs>
    <g clip-path="url(#pfdee33f9b8)">
     <use style="stroke:#000000;" x="60.197862" xlink:href="#ma21c457691" y="157.791765"/>
    </g>
   </g>
   <g id="line2d_11">
    <g clip-path="url(#pfdee33f9b8)">
     <use style="stroke:#000000;" x="60.197862" xlink:href="#ma21c457691" y="157.575166"/>
    </g>
   </g>
   <g id="line2d_12">
    <path clip-path="url(#pfdee33f9b8)" d="M 60.197862 149.476882 
L 93.548111 101.359943 
L 126.898359 71.438744 
L 160.248608 56.547623 
L 193.598856 49.123562 
" style="fill:none;stroke:#56b4e9;stroke-dasharray:2,3.3;stroke-dashoffset:0;stroke-width:2;"/>
   </g>
   <g id="line2d_13">
    <path clip-path="url(#pfdee33f9b8)" d="M 60.197862 149.476878 
" style="fill:none;stroke:#000000;stroke-dasharray:2,3.3;stroke-dashoffset:0;stroke-width:2;"/>
   </g>
   <g id="line2d_14">
    <defs>
     <path d="M 0 3 
C 0.795609 3 1.55874 2.683901 2.12132 2.12132 
C 2.683901 1.55874 3 0.795609 3 0 
C 3 -0.795609 2.683901 -1.55874 2.12132 -2.12132 
C 1.55874 -2.683901 0.795609 -3 0 -3 
C -0.795609 -3 -1.55874 -2.683901 -2.12132 -2.12132 
C -2.683901 -1.55874 -3 -0.795609 -3 0 
C -3 0.795609 -2.683901 1.55874 -2.12132 2.12132 
C -1.55874 2.683901 -0.795609 3 0 3 
z
" id="m6273cbabbd" style="stroke:#56b4e9;"/>
    </defs>
    <g clip-path="url(#pfdee33f9b8)">
     <use style="fill-opacity:0;stroke:#56b4e9;" x="60.197862" xlink:href="#m6273cbabbd" y="159.962738"/>
     <use style="fill-opacity:0;stroke:#56b4e9;" x="93.548111" xlink:href="#m6273cbabbd" y="110.745551"/>
     <use style="fill-opacity:0;stroke:#56b4e9;" x="126.898359" xlink:href="#m6273cbabbd" y="72.672602"/>
     <use style="fill-opacity:0;stroke:#56b4e9;" x="160.248608" xlink:href="#m6273cbabbd" y="48.019137"/>
     <use style="fill-opacity:0;stroke:#56b4e9;" x="193.598856" xlink:href="#m6273cbabbd" y="36.546725"/>
    </g>
   </g>
   <g id="line2d_15">
    <defs>
     <path d="M 0 3 
C 0.795609 3 1.55874 2.683901 2.12132 2.12132 
C 2.683901 1.55874 3 0.795609 3 0 
C 3 -0.795609 2.683901 -1.55874 2.12132 -2.12132 
C 1.55874 -2.683901 0.795609 -3 0 -3 
C -0.795609 -3 -1.55874 -2.683901 -2.12132 -2.12132 
C -2.683901 -1.55874 -3 -0.795609 -3 0 
C -3 0.795609 -2.683901 1.55874 -2.12132 2.12132 
C -1.55874 2.683901 -0.795609 3 0 3 
z
" id="m7a814c1df5" style="stroke:#000000;"/>
    </defs>
    <g clip-path="url(#pfdee33f9b8)">
     <use style="fill-opacity:0;stroke:#000000;" x="60.197862" xlink:href="#m7a814c1df5" y="157.683465"/>
    </g>
   </g>
   <g id="patch_3">
    <path d="M 53.527813 166.336562 
L 53.527813 28.479688 
" style="fill:none;stroke:#000000;stroke-linecap:square;stroke-linejoin:miter;stroke-width:0.8;"/>
   </g>
   <g id="patch_4">
    <path d="M 53.527813 166.336562 
L 200.268906 166.336562 
" style="fill:none;stroke:#000000;stroke-linecap:square;stroke-linejoin:miter;stroke-width:0.8;"/>
   </g>
   <g id="text_10">
    <!-- Simple HBS -->
    <g transform="translate(80.594609 22.479687)scale(0.16 -0.16)">
     <defs>
      <path d="M 53.515625 70.515625 
L 53.515625 60.890625 
Q 47.90625 63.578125 42.921875 64.890625 
Q 37.9375 66.21875 33.296875 66.21875 
Q 25.25 66.21875 20.875 63.09375 
Q 16.5 59.96875 16.5 54.203125 
Q 16.5 49.359375 19.40625 46.890625 
Q 22.3125 44.4375 30.421875 42.921875 
L 36.375 41.703125 
Q 47.40625 39.59375 52.65625 34.296875 
Q 57.90625 29 57.90625 20.125 
Q 57.90625 9.515625 50.796875 4.046875 
Q 43.703125 -1.421875 29.984375 -1.421875 
Q 24.8125 -1.421875 18.96875 -0.25 
Q 13.140625 0.921875 6.890625 3.21875 
L 6.890625 13.375 
Q 12.890625 10.015625 18.65625 8.296875 
Q 24.421875 6.59375 29.984375 6.59375 
Q 38.421875 6.59375 43.015625 9.90625 
Q 47.609375 13.234375 47.609375 19.390625 
Q 47.609375 24.75 44.3125 27.78125 
Q 41.015625 30.8125 33.5 32.328125 
L 27.484375 33.5 
Q 16.453125 35.6875 11.515625 40.375 
Q 6.59375 45.0625 6.59375 53.421875 
Q 6.59375 63.09375 13.40625 68.65625 
Q 20.21875 74.21875 32.171875 74.21875 
Q 37.3125 74.21875 42.625 73.28125 
Q 47.953125 72.359375 53.515625 70.515625 
z
" id="DejaVuSans-83"/>
      <path d="M 9.421875 54.6875 
L 18.40625 54.6875 
L 18.40625 0 
L 9.421875 0 
z
M 9.421875 75.984375 
L 18.40625 75.984375 
L 18.40625 64.59375 
L 9.421875 64.59375 
z
" id="DejaVuSans-105"/>
      <path d="M 52 44.1875 
Q 55.375 50.25 60.0625 53.125 
Q 64.75 56 71.09375 56 
Q 79.640625 56 84.28125 50.015625 
Q 88.921875 44.046875 88.921875 33.015625 
L 88.921875 0 
L 79.890625 0 
L 79.890625 32.71875 
Q 79.890625 40.578125 77.09375 44.375 
Q 74.3125 48.1875 68.609375 48.1875 
Q 61.625 48.1875 57.5625 43.546875 
Q 53.515625 38.921875 53.515625 30.90625 
L 53.515625 0 
L 44.484375 0 
L 44.484375 32.71875 
Q 44.484375 40.625 41.703125 44.40625 
Q 38.921875 48.1875 33.109375 48.1875 
Q 26.21875 48.1875 22.15625 43.53125 
Q 18.109375 38.875 18.109375 30.90625 
L 18.109375 0 
L 9.078125 0 
L 9.078125 54.6875 
L 18.109375 54.6875 
L 18.109375 46.1875 
Q 21.1875 51.21875 25.484375 53.609375 
Q 29.78125 56 35.6875 56 
Q 41.65625 56 45.828125 52.96875 
Q 50 49.953125 52 44.1875 
z
" id="DejaVuSans-109"/>
      <path d="M 18.109375 8.203125 
L 18.109375 -20.796875 
L 9.078125 -20.796875 
L 9.078125 54.6875 
L 18.109375 54.6875 
L 18.109375 46.390625 
Q 20.953125 51.265625 25.265625 53.625 
Q 29.59375 56 35.59375 56 
Q 45.5625 56 51.78125 48.09375 
Q 58.015625 40.1875 58.015625 27.296875 
Q 58.015625 14.40625 51.78125 6.484375 
Q 45.5625 -1.421875 35.59375 -1.421875 
Q 29.59375 -1.421875 25.265625 0.953125 
Q 20.953125 3.328125 18.109375 8.203125 
z
M 48.6875 27.296875 
Q 48.6875 37.203125 44.609375 42.84375 
Q 40.53125 48.484375 33.40625 48.484375 
Q 26.265625 48.484375 22.1875 42.84375 
Q 18.109375 37.203125 18.109375 27.296875 
Q 18.109375 17.390625 22.1875 11.75 
Q 26.265625 6.109375 33.40625 6.109375 
Q 40.53125 6.109375 44.609375 11.75 
Q 48.6875 17.390625 48.6875 27.296875 
z
" id="DejaVuSans-112"/>
      <path d="M 9.421875 75.984375 
L 18.40625 75.984375 
L 18.40625 0 
L 9.421875 0 
z
" id="DejaVuSans-108"/>
      <path d="M 56.203125 29.59375 
L 56.203125 25.203125 
L 14.890625 25.203125 
Q 15.484375 15.921875 20.484375 11.0625 
Q 25.484375 6.203125 34.421875 6.203125 
Q 39.59375 6.203125 44.453125 7.46875 
Q 49.3125 8.734375 54.109375 11.28125 
L 54.109375 2.78125 
Q 49.265625 0.734375 44.1875 -0.34375 
Q 39.109375 -1.421875 33.890625 -1.421875 
Q 20.796875 -1.421875 13.15625 6.1875 
Q 5.515625 13.8125 5.515625 26.8125 
Q 5.515625 40.234375 12.765625 48.109375 
Q 20.015625 56 32.328125 56 
Q 43.359375 56 49.78125 48.890625 
Q 56.203125 41.796875 56.203125 29.59375 
z
M 47.21875 32.234375 
Q 47.125 39.59375 43.09375 43.984375 
Q 39.0625 48.390625 32.421875 48.390625 
Q 24.90625 48.390625 20.390625 44.140625 
Q 15.875 39.890625 15.1875 32.171875 
z
" id="DejaVuSans-101"/>
      <path id="DejaVuSans-32"/>
      <path d="M 9.8125 72.90625 
L 19.671875 72.90625 
L 19.671875 43.015625 
L 55.515625 43.015625 
L 55.515625 72.90625 
L 65.375 72.90625 
L 65.375 0 
L 55.515625 0 
L 55.515625 34.71875 
L 19.671875 34.71875 
L 19.671875 0 
L 9.8125 0 
z
" id="DejaVuSans-72"/>
      <path d="M 19.671875 34.8125 
L 19.671875 8.109375 
L 35.5 8.109375 
Q 43.453125 8.109375 47.28125 11.40625 
Q 51.125 14.703125 51.125 21.484375 
Q 51.125 28.328125 47.28125 31.5625 
Q 43.453125 34.8125 35.5 34.8125 
z
M 19.671875 64.796875 
L 19.671875 42.828125 
L 34.28125 42.828125 
Q 41.5 42.828125 45.03125 45.53125 
Q 48.578125 48.25 48.578125 53.8125 
Q 48.578125 59.328125 45.03125 62.0625 
Q 41.5 64.796875 34.28125 64.796875 
z
M 9.8125 72.90625 
L 35.015625 72.90625 
Q 46.296875 72.90625 52.390625 68.21875 
Q 58.5 63.53125 58.5 54.890625 
Q 58.5 48.1875 55.375 44.234375 
Q 52.25 40.28125 46.1875 39.3125 
Q 53.46875 37.75 57.5 32.78125 
Q 61.53125 27.828125 61.53125 20.40625 
Q 61.53125 10.640625 54.890625 5.3125 
Q 48.25 0 35.984375 0 
L 9.8125 0 
z
" id="DejaVuSans-66"/>
     </defs>
     <use xlink:href="#DejaVuSans-83"/>
     <use x="63.476562" xlink:href="#DejaVuSans-105"/>
     <use x="91.259766" xlink:href="#DejaVuSans-109"/>
     <use x="188.671875" xlink:href="#DejaVuSans-112"/>
     <use x="252.148438" xlink:href="#DejaVuSans-108"/>
     <use x="279.931641" xlink:href="#DejaVuSans-101"/>
     <use x="341.455078" xlink:href="#DejaVuSans-32"/>
     <use x="373.242188" xlink:href="#DejaVuSans-72"/>
     <use x="448.4375" xlink:href="#DejaVuSans-66"/>
     <use x="515.291016" xlink:href="#DejaVuSans-83"/>
    </g>
   </g>
   <g id="legend_1">
    <g id="patch_5">
     <path d="M 89.279872 162.866562 
L 195.410906 162.866562 
Q 196.798906 162.866562 196.798906 161.478562 
L 196.798906 121.31765 
Q 196.798906 119.92965 195.410906 119.92965 
L 89.279872 119.92965 
Q 87.891872 119.92965 87.891872 121.31765 
L 87.891872 161.478562 
Q 87.891872 162.866562 89.279872 162.866562 
z
" style="fill:#ffffff;opacity:0.8;stroke:#cccccc;stroke-linejoin:miter;"/>
    </g>
    <g id="line2d_16">
     <path d="M 90.667872 125.549966 
L 104.547872 125.549966 
" style="fill:none;stroke:#56b4e9;stroke-dasharray:2,3.3;stroke-dashoffset:0;stroke-width:2;"/>
    </g>
    <g id="line2d_17"/>
    <g id="text_11">
     <!-- 1% O2 Model fit 2 -->
     <g transform="translate(110.099872 127.978966)scale(0.0694 -0.0694)">
      <defs>
       <path d="M 77.484375 30.078125 
Q 74.03125 30.078125 72.125 27.078125 
Q 70.21875 24.078125 70.21875 18.5 
Q 70.21875 12.890625 72.09375 9.890625 
Q 73.96875 6.890625 77.484375 6.890625 
Q 81 6.890625 82.859375 9.890625 
Q 84.71875 12.890625 84.71875 18.5 
Q 84.71875 24.078125 82.828125 27.078125 
Q 80.953125 30.078125 77.484375 30.078125 
z
M 77.484375 38.28125 
Q 86.578125 38.28125 91.796875 33 
Q 97.015625 27.734375 97.015625 18.5 
Q 97.015625 9.28125 91.796875 3.921875 
Q 86.578125 -1.421875 77.484375 -1.421875 
Q 68.40625 -1.421875 63.15625 3.921875 
Q 57.90625 9.28125 57.90625 18.5 
Q 57.90625 27.6875 63.15625 32.984375 
Q 68.40625 38.28125 77.484375 38.28125 
z
M 32.71875 -1.421875 
L 21.921875 -1.421875 
L 67.484375 74.21875 
L 78.328125 74.21875 
z
M 22.703125 74.21875 
Q 31.78125 74.21875 36.984375 68.921875 
Q 42.1875 63.625 42.1875 54.390625 
Q 42.1875 45.171875 36.984375 39.84375 
Q 31.78125 34.515625 22.703125 34.515625 
Q 13.625 34.515625 8.421875 39.84375 
Q 3.21875 45.171875 3.21875 54.390625 
Q 3.21875 63.625 8.421875 68.921875 
Q 13.625 74.21875 22.703125 74.21875 
z
M 22.703125 66.015625 
Q 19.1875 66.015625 17.28125 62.984375 
Q 15.375 59.96875 15.375 54.390625 
Q 15.375 48.78125 17.28125 45.71875 
Q 19.1875 42.671875 22.703125 42.671875 
Q 26.21875 42.671875 28.09375 45.71875 
Q 29.984375 48.78125 29.984375 54.390625 
Q 29.984375 59.96875 28.078125 62.984375 
Q 26.171875 66.015625 22.703125 66.015625 
z
" id="DejaVuSans-Bold-37"/>
       <path d="M 42.484375 60.59375 
Q 33.890625 60.59375 29.15625 54.25 
Q 24.421875 47.90625 24.421875 36.375 
Q 24.421875 24.90625 29.15625 18.546875 
Q 33.890625 12.203125 42.484375 12.203125 
Q 51.125 12.203125 55.859375 18.546875 
Q 60.59375 24.90625 60.59375 36.375 
Q 60.59375 47.90625 55.859375 54.25 
Q 51.125 60.59375 42.484375 60.59375 
z
M 42.484375 74.21875 
Q 60.0625 74.21875 70.015625 64.15625 
Q 79.984375 54.109375 79.984375 36.375 
Q 79.984375 18.703125 70.015625 8.640625 
Q 60.0625 -1.421875 42.484375 -1.421875 
Q 24.953125 -1.421875 14.96875 8.640625 
Q 4.984375 18.703125 4.984375 36.375 
Q 4.984375 54.109375 14.96875 64.15625 
Q 24.953125 74.21875 42.484375 74.21875 
z
" id="DejaVuSans-Bold-79"/>
       <path d="M 9.1875 72.90625 
L 33.109375 72.90625 
L 49.703125 33.890625 
L 66.40625 72.90625 
L 90.28125 72.90625 
L 90.28125 0 
L 72.515625 0 
L 72.515625 53.328125 
L 55.71875 14.015625 
L 43.796875 14.015625 
L 27 53.328125 
L 27 0 
L 9.1875 0 
z
" id="DejaVuSans-Bold-77"/>
       <path d="M 45.609375 46.6875 
L 45.609375 75.984375 
L 63.1875 75.984375 
L 63.1875 0 
L 45.609375 0 
L 45.609375 7.90625 
Q 42 3.078125 37.640625 0.828125 
Q 33.296875 -1.421875 27.59375 -1.421875 
Q 17.484375 -1.421875 10.984375 6.609375 
Q 4.5 14.65625 4.5 27.296875 
Q 4.5 39.9375 10.984375 47.96875 
Q 17.484375 56 27.59375 56 
Q 33.25 56 37.625 53.734375 
Q 42 51.46875 45.609375 46.6875 
z
M 34.078125 11.28125 
Q 39.703125 11.28125 42.65625 15.375 
Q 45.609375 19.484375 45.609375 27.296875 
Q 45.609375 35.109375 42.65625 39.203125 
Q 39.703125 43.3125 34.078125 43.3125 
Q 28.515625 43.3125 25.5625 39.203125 
Q 22.609375 35.109375 22.609375 27.296875 
Q 22.609375 19.484375 25.5625 15.375 
Q 28.515625 11.28125 34.078125 11.28125 
z
" id="DejaVuSans-Bold-100"/>
       <path d="M 44.390625 75.984375 
L 44.390625 64.5 
L 34.71875 64.5 
Q 31 64.5 29.53125 63.15625 
Q 28.078125 61.8125 28.078125 58.5 
L 28.078125 54.6875 
L 43.015625 54.6875 
L 43.015625 42.1875 
L 28.078125 42.1875 
L 28.078125 0 
L 10.59375 0 
L 10.59375 42.1875 
L 1.90625 42.1875 
L 1.90625 54.6875 
L 10.59375 54.6875 
L 10.59375 58.5 
Q 10.59375 67.4375 15.578125 71.703125 
Q 20.5625 75.984375 31 75.984375 
z
" id="DejaVuSans-Bold-102"/>
      </defs>
      <use xlink:href="#DejaVuSans-Bold-49"/>
      <use x="69.580078" xlink:href="#DejaVuSans-Bold-37"/>
      <use x="169.775391" xlink:href="#DejaVuSans-Bold-32"/>
      <use x="204.589844" xlink:href="#DejaVuSans-Bold-79"/>
      <use x="289.599609" xlink:href="#DejaVuSans-Bold-50"/>
      <use x="359.179688" xlink:href="#DejaVuSans-Bold-32"/>
      <use x="393.994141" xlink:href="#DejaVuSans-Bold-77"/>
      <use x="493.505859" xlink:href="#DejaVuSans-Bold-111"/>
      <use x="562.207031" xlink:href="#DejaVuSans-Bold-100"/>
      <use x="633.789062" xlink:href="#DejaVuSans-Bold-101"/>
      <use x="701.611328" xlink:href="#DejaVuSans-Bold-108"/>
      <use x="735.888672" xlink:href="#DejaVuSans-Bold-32"/>
      <use x="770.703125" xlink:href="#DejaVuSans-Bold-102"/>
      <use x="814.208984" xlink:href="#DejaVuSans-Bold-105"/>
      <use x="848.486328" xlink:href="#DejaVuSans-Bold-116"/>
      <use x="896.289062" xlink:href="#DejaVuSans-Bold-32"/>
      <use x="931.103516" xlink:href="#DejaVuSans-Bold-50"/>
     </g>
    </g>
    <g id="line2d_18">
     <path d="M 90.667872 135.736584 
L 104.547872 135.736584 
" style="fill:none;stroke:#000000;stroke-dasharray:2,3.3;stroke-dashoffset:0;stroke-width:2;"/>
    </g>
    <g id="line2d_19"/>
    <g id="text_12">
     <!-- 21% O2 Model fit 2 -->
     <g transform="translate(110.099872 138.165584)scale(0.0694 -0.0694)">
      <use xlink:href="#DejaVuSans-Bold-50"/>
      <use x="69.580078" xlink:href="#DejaVuSans-Bold-49"/>
      <use x="139.160156" xlink:href="#DejaVuSans-Bold-37"/>
      <use x="239.355469" xlink:href="#DejaVuSans-Bold-32"/>
      <use x="274.169922" xlink:href="#DejaVuSans-Bold-79"/>
      <use x="359.179688" xlink:href="#DejaVuSans-Bold-50"/>
      <use x="428.759766" xlink:href="#DejaVuSans-Bold-32"/>
      <use x="463.574219" xlink:href="#DejaVuSans-Bold-77"/>
      <use x="563.085938" xlink:href="#DejaVuSans-Bold-111"/>
      <use x="631.787109" xlink:href="#DejaVuSans-Bold-100"/>
      <use x="703.369141" xlink:href="#DejaVuSans-Bold-101"/>
      <use x="771.191406" xlink:href="#DejaVuSans-Bold-108"/>
      <use x="805.46875" xlink:href="#DejaVuSans-Bold-32"/>
      <use x="840.283203" xlink:href="#DejaVuSans-Bold-102"/>
      <use x="883.789062" xlink:href="#DejaVuSans-Bold-105"/>
      <use x="918.066406" xlink:href="#DejaVuSans-Bold-116"/>
      <use x="965.869141" xlink:href="#DejaVuSans-Bold-32"/>
      <use x="1000.683594" xlink:href="#DejaVuSans-Bold-50"/>
     </g>
    </g>
    <g id="LineCollection_3">
     <path d="M 97.607872 149.393203 
L 97.607872 142.453203 
" style="fill:none;stroke:#56b4e9;stroke-width:2;"/>
    </g>
    <g id="line2d_20">
     <g>
      <use style="fill:#56b4e9;stroke:#56b4e9;" x="97.607872" xlink:href="#m3ab5666b19" y="149.393203"/>
     </g>
    </g>
    <g id="line2d_21">
     <g>
      <use style="fill:#56b4e9;stroke:#56b4e9;" x="97.607872" xlink:href="#m3ab5666b19" y="142.453203"/>
     </g>
    </g>
    <g id="line2d_22"/>
    <g id="line2d_23">
     <g>
      <use style="fill-opacity:0;stroke:#56b4e9;" x="97.607872" xlink:href="#m6273cbabbd" y="145.923203"/>
     </g>
    </g>
    <g id="text_13">
     <!-- 1% O2 Training data -->
     <g transform="translate(110.099872 148.352203)scale(0.0694 -0.0694)">
      <use xlink:href="#DejaVuSans-Bold-49"/>
      <use x="69.580078" xlink:href="#DejaVuSans-Bold-37"/>
      <use x="169.775391" xlink:href="#DejaVuSans-Bold-32"/>
      <use x="204.589844" xlink:href="#DejaVuSans-Bold-79"/>
      <use x="289.599609" xlink:href="#DejaVuSans-Bold-50"/>
      <use x="359.179688" xlink:href="#DejaVuSans-Bold-32"/>
      <use x="393.994141" xlink:href="#DejaVuSans-Bold-84"/>
      <use x="451.207031" xlink:href="#DejaVuSans-Bold-114"/>
      <use x="500.523438" xlink:href="#DejaVuSans-Bold-97"/>
      <use x="568.003906" xlink:href="#DejaVuSans-Bold-105"/>
      <use x="602.28125" xlink:href="#DejaVuSans-Bold-110"/>
      <use x="673.472656" xlink:href="#DejaVuSans-Bold-105"/>
      <use x="707.75" xlink:href="#DejaVuSans-Bold-110"/>
      <use x="778.941406" xlink:href="#DejaVuSans-Bold-103"/>
      <use x="850.523438" xlink:href="#DejaVuSans-Bold-32"/>
      <use x="885.337891" xlink:href="#DejaVuSans-Bold-100"/>
      <use x="956.919922" xlink:href="#DejaVuSans-Bold-97"/>
      <use x="1024.400391" xlink:href="#DejaVuSans-Bold-116"/>
      <use x="1072.203125" xlink:href="#DejaVuSans-Bold-97"/>
     </g>
    </g>
    <g id="LineCollection_4">
     <path d="M 97.607872 159.634041 
L 97.607872 152.694041 
" style="fill:none;stroke:#000000;stroke-width:2;"/>
    </g>
    <g id="line2d_24">
     <g>
      <use style="stroke:#000000;" x="97.607872" xlink:href="#ma21c457691" y="159.634041"/>
     </g>
    </g>
    <g id="line2d_25">
     <g>
      <use style="stroke:#000000;" x="97.607872" xlink:href="#ma21c457691" y="152.694041"/>
     </g>
    </g>
    <g id="line2d_26"/>
    <g id="line2d_27">
     <g>
      <use style="fill-opacity:0;stroke:#000000;" x="97.607872" xlink:href="#m7a814c1df5" y="156.164041"/>
     </g>
    </g>
    <g id="text_14">
     <!-- 21% O2 Training data -->
     <g transform="translate(110.099872 158.593041)scale(0.0694 -0.0694)">
      <use xlink:href="#DejaVuSans-Bold-50"/>
      <use x="69.580078" xlink:href="#DejaVuSans-Bold-49"/>
      <use x="139.160156" xlink:href="#DejaVuSans-Bold-37"/>
      <use x="239.355469" xlink:href="#DejaVuSans-Bold-32"/>
      <use x="274.169922" xlink:href="#DejaVuSans-Bold-79"/>
      <use x="359.179688" xlink:href="#DejaVuSans-Bold-50"/>
      <use x="428.759766" xlink:href="#DejaVuSans-Bold-32"/>
      <use x="463.574219" xlink:href="#DejaVuSans-Bold-84"/>
      <use x="520.787109" xlink:href="#DejaVuSans-Bold-114"/>
      <use x="570.103516" xlink:href="#DejaVuSans-Bold-97"/>
      <use x="637.583984" xlink:href="#DejaVuSans-Bold-105"/>
      <use x="671.861328" xlink:href="#DejaVuSans-Bold-110"/>
      <use x="743.052734" xlink:href="#DejaVuSans-Bold-105"/>
      <use x="777.330078" xlink:href="#DejaVuSans-Bold-110"/>
      <use x="848.521484" xlink:href="#DejaVuSans-Bold-103"/>
      <use x="920.103516" xlink:href="#DejaVuSans-Bold-32"/>
      <use x="954.917969" xlink:href="#DejaVuSans-Bold-100"/>
      <use x="1026.5" xlink:href="#DejaVuSans-Bold-97"/>
      <use x="1093.980469" xlink:href="#DejaVuSans-Bold-116"/>
      <use x="1141.783203" xlink:href="#DejaVuSans-Bold-97"/>
     </g>
    </g>
   </g>
  </g>
  <g id="axes_2">
   <g id="patch_6">
    <path d="M 266.714453 166.336562 
L 413.455547 166.336562 
L 413.455547 28.479687 
L 266.714453 28.479687 
z
" style="fill:#ffffff;"/>
   </g>
   <g id="matplotlib.axis_3">
    <g id="xtick_4">
     <g id="line2d_28">
      <g>
       <use style="stroke:#000000;stroke-width:0.8;" x="273.384503" xlink:href="#m6ddd6069d0" y="166.336562"/>
      </g>
     </g>
     <g id="text_15">
      <!-- 0 -->
      <g transform="translate(269.905597 180.935)scale(0.1 -0.1)">
       <use xlink:href="#DejaVuSans-Bold-48"/>
      </g>
     </g>
    </g>
    <g id="xtick_5">
     <g id="line2d_29">
      <g>
       <use style="stroke:#000000;stroke-width:0.8;" x="328.96825" xlink:href="#m6ddd6069d0" y="166.336562"/>
      </g>
     </g>
     <g id="text_16">
      <!-- 50 -->
      <g transform="translate(322.010438 180.935)scale(0.1 -0.1)">
       <use xlink:href="#DejaVuSans-Bold-53"/>
       <use x="69.580078" xlink:href="#DejaVuSans-Bold-48"/>
      </g>
     </g>
    </g>
    <g id="xtick_6">
     <g id="line2d_30">
      <g>
       <use style="stroke:#000000;stroke-width:0.8;" x="384.551998" xlink:href="#m6ddd6069d0" y="166.336562"/>
      </g>
     </g>
     <g id="text_17">
      <!-- 100 -->
      <g transform="translate(374.115279 180.935)scale(0.1 -0.1)">
       <use xlink:href="#DejaVuSans-Bold-49"/>
       <use x="69.580078" xlink:href="#DejaVuSans-Bold-48"/>
       <use x="139.160156" xlink:href="#DejaVuSans-Bold-48"/>
      </g>
     </g>
    </g>
    <g id="text_18">
     <!-- Time Post-Plating (hours) -->
     <g transform="translate(253.31375 202.132812)scale(0.12 -0.12)">
      <use xlink:href="#DejaVuSans-Bold-84"/>
      <use x="68.212891" xlink:href="#DejaVuSans-Bold-105"/>
      <use x="102.490234" xlink:href="#DejaVuSans-Bold-109"/>
      <use x="206.689453" xlink:href="#DejaVuSans-Bold-101"/>
      <use x="274.511719" xlink:href="#DejaVuSans-Bold-32"/>
      <use x="309.326172" xlink:href="#DejaVuSans-Bold-80"/>
      <use x="382.617188" xlink:href="#DejaVuSans-Bold-111"/>
      <use x="451.318359" xlink:href="#DejaVuSans-Bold-115"/>
      <use x="510.839844" xlink:href="#DejaVuSans-Bold-116"/>
      <use x="558.642578" xlink:href="#DejaVuSans-Bold-45"/>
      <use x="600.146484" xlink:href="#DejaVuSans-Bold-80"/>
      <use x="673.4375" xlink:href="#DejaVuSans-Bold-108"/>
      <use x="707.714844" xlink:href="#DejaVuSans-Bold-97"/>
      <use x="775.195312" xlink:href="#DejaVuSans-Bold-116"/>
      <use x="822.998047" xlink:href="#DejaVuSans-Bold-105"/>
      <use x="857.275391" xlink:href="#DejaVuSans-Bold-110"/>
      <use x="928.466797" xlink:href="#DejaVuSans-Bold-103"/>
      <use x="1000.048828" xlink:href="#DejaVuSans-Bold-32"/>
      <use x="1034.863281" xlink:href="#DejaVuSans-Bold-40"/>
      <use x="1080.566406" xlink:href="#DejaVuSans-Bold-104"/>
      <use x="1151.757812" xlink:href="#DejaVuSans-Bold-111"/>
      <use x="1220.458984" xlink:href="#DejaVuSans-Bold-117"/>
      <use x="1291.650391" xlink:href="#DejaVuSans-Bold-114"/>
      <use x="1340.966797" xlink:href="#DejaVuSans-Bold-115"/>
      <use x="1400.488281" xlink:href="#DejaVuSans-Bold-41"/>
     </g>
    </g>
   </g>
   <g id="matplotlib.axis_4">
    <g id="ytick_5">
     <g id="line2d_31">
      <g>
       <use style="stroke:#000000;stroke-width:0.8;" x="266.714453" xlink:href="#m3c1413916b" y="165.113887"/>
      </g>
     </g>
     <g id="text_19">
      <!-- 0.0 -->
      <g transform="translate(242.000391 168.913105)scale(0.1 -0.1)">
       <use xlink:href="#DejaVuSans-Bold-48"/>
       <use x="69.580078" xlink:href="#DejaVuSans-Bold-46"/>
       <use x="107.568359" xlink:href="#DejaVuSans-Bold-48"/>
      </g>
     </g>
    </g>
    <g id="ytick_6">
     <g id="line2d_32">
      <g>
       <use style="stroke:#000000;stroke-width:0.8;" x="266.714453" xlink:href="#m3c1413916b" y="140.045107"/>
      </g>
     </g>
     <g id="text_20">
      <!-- 0.5 -->
      <g transform="translate(242.000391 143.844326)scale(0.1 -0.1)">
       <use xlink:href="#DejaVuSans-Bold-48"/>
       <use x="69.580078" xlink:href="#DejaVuSans-Bold-46"/>
       <use x="107.568359" xlink:href="#DejaVuSans-Bold-53"/>
      </g>
     </g>
    </g>
    <g id="ytick_7">
     <g id="line2d_33">
      <g>
       <use style="stroke:#000000;stroke-width:0.8;" x="266.714453" xlink:href="#m3c1413916b" y="114.976327"/>
      </g>
     </g>
     <g id="text_21">
      <!-- 1.0 -->
      <g transform="translate(242.000391 118.775546)scale(0.1 -0.1)">
       <use xlink:href="#DejaVuSans-Bold-49"/>
       <use x="69.580078" xlink:href="#DejaVuSans-Bold-46"/>
       <use x="107.568359" xlink:href="#DejaVuSans-Bold-48"/>
      </g>
     </g>
    </g>
    <g id="ytick_8">
     <g id="line2d_34">
      <g>
       <use style="stroke:#000000;stroke-width:0.8;" x="266.714453" xlink:href="#m3c1413916b" y="89.907548"/>
      </g>
     </g>
     <g id="text_22">
      <!-- 1.5 -->
      <g transform="translate(242.000391 93.706766)scale(0.1 -0.1)">
       <use xlink:href="#DejaVuSans-Bold-49"/>
       <use x="69.580078" xlink:href="#DejaVuSans-Bold-46"/>
       <use x="107.568359" xlink:href="#DejaVuSans-Bold-53"/>
      </g>
     </g>
    </g>
    <g id="ytick_9">
     <g id="line2d_35">
      <g>
       <use style="stroke:#000000;stroke-width:0.8;" x="266.714453" xlink:href="#m3c1413916b" y="64.838768"/>
      </g>
     </g>
     <g id="text_23">
      <!-- 2.0 -->
      <g transform="translate(242.000391 68.637987)scale(0.1 -0.1)">
       <use xlink:href="#DejaVuSans-Bold-50"/>
       <use x="69.580078" xlink:href="#DejaVuSans-Bold-46"/>
       <use x="107.568359" xlink:href="#DejaVuSans-Bold-48"/>
      </g>
     </g>
    </g>
    <g id="ytick_10">
     <g id="line2d_36">
      <g>
       <use style="stroke:#000000;stroke-width:0.8;" x="266.714453" xlink:href="#m3c1413916b" y="39.769988"/>
      </g>
     </g>
     <g id="text_24">
      <!-- 2.5 -->
      <g transform="translate(242.000391 43.569207)scale(0.1 -0.1)">
       <use xlink:href="#DejaVuSans-Bold-50"/>
       <use x="69.580078" xlink:href="#DejaVuSans-Bold-46"/>
       <use x="107.568359" xlink:href="#DejaVuSans-Bold-53"/>
      </g>
     </g>
    </g>
    <g id="text_25">
     <!-- Relative DsRE2 Expression -->
     <g transform="translate(229.504766 187.61625)rotate(-90)scale(0.12 -0.12)">
      <use xlink:href="#DejaVuSans-Bold-82"/>
      <use x="77.001953" xlink:href="#DejaVuSans-Bold-101"/>
      <use x="144.824219" xlink:href="#DejaVuSans-Bold-108"/>
      <use x="179.101562" xlink:href="#DejaVuSans-Bold-97"/>
      <use x="246.582031" xlink:href="#DejaVuSans-Bold-116"/>
      <use x="294.384766" xlink:href="#DejaVuSans-Bold-105"/>
      <use x="328.662109" xlink:href="#DejaVuSans-Bold-118"/>
      <use x="393.847656" xlink:href="#DejaVuSans-Bold-101"/>
      <use x="461.669922" xlink:href="#DejaVuSans-Bold-32"/>
      <use x="496.484375" xlink:href="#DejaVuSans-Bold-68"/>
      <use x="579.492188" xlink:href="#DejaVuSans-Bold-115"/>
      <use x="639.013672" xlink:href="#DejaVuSans-Bold-82"/>
      <use x="716.015625" xlink:href="#DejaVuSans-Bold-69"/>
      <use x="784.326172" xlink:href="#DejaVuSans-Bold-50"/>
      <use x="853.90625" xlink:href="#DejaVuSans-Bold-32"/>
      <use x="888.720703" xlink:href="#DejaVuSans-Bold-69"/>
      <use x="957.03125" xlink:href="#DejaVuSans-Bold-120"/>
      <use x="1021.533203" xlink:href="#DejaVuSans-Bold-112"/>
      <use x="1093.115234" xlink:href="#DejaVuSans-Bold-114"/>
      <use x="1142.431641" xlink:href="#DejaVuSans-Bold-101"/>
      <use x="1210.253906" xlink:href="#DejaVuSans-Bold-115"/>
      <use x="1269.775391" xlink:href="#DejaVuSans-Bold-115"/>
      <use x="1329.296875" xlink:href="#DejaVuSans-Bold-105"/>
      <use x="1363.574219" xlink:href="#DejaVuSans-Bold-111"/>
      <use x="1432.275391" xlink:href="#DejaVuSans-Bold-110"/>
     </g>
    </g>
   </g>
   <g id="LineCollection_5">
    <path clip-path="url(#pd5e617cde3)" d="M 273.384503 160.070341 
L 273.384503 159.958948 
" style="fill:none;stroke:#56b4e9;stroke-width:2;"/>
    <path clip-path="url(#pd5e617cde3)" d="M 300.064702 93.175992 
L 300.064702 79.982126 
" style="fill:none;stroke:#56b4e9;stroke-width:2;"/>
    <path clip-path="url(#pd5e617cde3)" d="M 326.744901 46.79916 
L 326.744901 34.745909 
" style="fill:none;stroke:#56b4e9;stroke-width:2;"/>
    <path clip-path="url(#pd5e617cde3)" d="M 353.425099 71.115554 
L 353.425099 41.911358 
" style="fill:none;stroke:#56b4e9;stroke-width:2;"/>
    <path clip-path="url(#pd5e617cde3)" d="M 380.105298 73.870562 
L 380.105298 63.192297 
" style="fill:none;stroke:#56b4e9;stroke-width:2;"/>
    <path clip-path="url(#pd5e617cde3)" d="M 406.785497 81.240257 
L 406.785497 61.862938 
" style="fill:none;stroke:#56b4e9;stroke-width:2;"/>
   </g>
   <g id="LineCollection_6">
    <path clip-path="url(#pd5e617cde3)" d="M 273.384503 157.877973 
L 273.384503 157.335653 
" style="fill:none;stroke:#000000;stroke-width:2;"/>
   </g>
   <g id="line2d_37">
    <g clip-path="url(#pd5e617cde3)">
     <use style="fill:#56b4e9;stroke:#56b4e9;" x="273.384503" xlink:href="#m3ab5666b19" y="160.070341"/>
     <use style="fill:#56b4e9;stroke:#56b4e9;" x="300.064702" xlink:href="#m3ab5666b19" y="93.175992"/>
     <use style="fill:#56b4e9;stroke:#56b4e9;" x="326.744901" xlink:href="#m3ab5666b19" y="46.79916"/>
     <use style="fill:#56b4e9;stroke:#56b4e9;" x="353.425099" xlink:href="#m3ab5666b19" y="71.115554"/>
     <use style="fill:#56b4e9;stroke:#56b4e9;" x="380.105298" xlink:href="#m3ab5666b19" y="73.870562"/>
     <use style="fill:#56b4e9;stroke:#56b4e9;" x="406.785497" xlink:href="#m3ab5666b19" y="81.240257"/>
    </g>
   </g>
   <g id="line2d_38">
    <g clip-path="url(#pd5e617cde3)">
     <use style="fill:#56b4e9;stroke:#56b4e9;" x="273.384503" xlink:href="#m3ab5666b19" y="159.958948"/>
     <use style="fill:#56b4e9;stroke:#56b4e9;" x="300.064702" xlink:href="#m3ab5666b19" y="79.982126"/>
     <use style="fill:#56b4e9;stroke:#56b4e9;" x="326.744901" xlink:href="#m3ab5666b19" y="34.745909"/>
     <use style="fill:#56b4e9;stroke:#56b4e9;" x="353.425099" xlink:href="#m3ab5666b19" y="41.911358"/>
     <use style="fill:#56b4e9;stroke:#56b4e9;" x="380.105298" xlink:href="#m3ab5666b19" y="63.192297"/>
     <use style="fill:#56b4e9;stroke:#56b4e9;" x="406.785497" xlink:href="#m3ab5666b19" y="61.862938"/>
    </g>
   </g>
   <g id="line2d_39">
    <g clip-path="url(#pd5e617cde3)">
     <use style="stroke:#000000;" x="273.384503" xlink:href="#ma21c457691" y="157.877973"/>
    </g>
   </g>
   <g id="line2d_40">
    <g clip-path="url(#pd5e617cde3)">
     <use style="stroke:#000000;" x="273.384503" xlink:href="#ma21c457691" y="157.335653"/>
    </g>
   </g>
   <g id="line2d_41">
    <path clip-path="url(#pd5e617cde3)" d="M 273.384503 155.263779 
L 300.064702 104.348143 
L 326.744901 71.733273 
L 353.425099 55.541052 
L 380.105298 47.468104 
L 406.785497 43.443132 
" style="fill:none;stroke:#56b4e9;stroke-dasharray:2,3.3;stroke-dashoffset:0;stroke-width:2;"/>
   </g>
   <g id="line2d_42">
    <path clip-path="url(#pd5e617cde3)" d="M 273.384503 155.263776 
" style="fill:none;stroke:#000000;stroke-dasharray:2,3.3;stroke-dashoffset:0;stroke-width:2;"/>
   </g>
   <g id="line2d_43">
    <g clip-path="url(#pd5e617cde3)">
     <use style="fill-opacity:0;stroke:#56b4e9;" x="273.384503" xlink:href="#m6273cbabbd" y="160.014645"/>
     <use style="fill-opacity:0;stroke:#56b4e9;" x="300.064702" xlink:href="#m6273cbabbd" y="86.579059"/>
     <use style="fill-opacity:0;stroke:#56b4e9;" x="326.744901" xlink:href="#m6273cbabbd" y="40.772535"/>
     <use style="fill-opacity:0;stroke:#56b4e9;" x="353.425099" xlink:href="#m6273cbabbd" y="56.513456"/>
     <use style="fill-opacity:0;stroke:#56b4e9;" x="380.105298" xlink:href="#m6273cbabbd" y="68.53143"/>
     <use style="fill-opacity:0;stroke:#56b4e9;" x="406.785497" xlink:href="#m6273cbabbd" y="71.551597"/>
    </g>
   </g>
   <g id="line2d_44">
    <g clip-path="url(#pd5e617cde3)">
     <use style="fill-opacity:0;stroke:#000000;" x="273.384503" xlink:href="#m7a814c1df5" y="157.606813"/>
    </g>
   </g>
   <g id="patch_7">
    <path d="M 266.714453 166.336562 
L 266.714453 28.479687 
" style="fill:none;stroke:#000000;stroke-linecap:square;stroke-linejoin:miter;stroke-width:0.8;"/>
   </g>
   <g id="patch_8">
    <path d="M 266.714453 166.336562 
L 413.455547 166.336562 
" style="fill:none;stroke:#000000;stroke-linecap:square;stroke-linejoin:miter;stroke-width:0.8;"/>
   </g>
   <g id="text_26">
    <!-- HIF1a Feedback HBS -->
    <g transform="translate(257.48875 22.479687)scale(0.16 -0.16)">
     <defs>
      <path d="M 9.8125 72.90625 
L 19.671875 72.90625 
L 19.671875 0 
L 9.8125 0 
z
" id="DejaVuSans-73"/>
      <path d="M 9.8125 72.90625 
L 51.703125 72.90625 
L 51.703125 64.59375 
L 19.671875 64.59375 
L 19.671875 43.109375 
L 48.578125 43.109375 
L 48.578125 34.8125 
L 19.671875 34.8125 
L 19.671875 0 
L 9.8125 0 
z
" id="DejaVuSans-70"/>
      <path d="M 12.40625 8.296875 
L 28.515625 8.296875 
L 28.515625 63.921875 
L 10.984375 60.40625 
L 10.984375 69.390625 
L 28.421875 72.90625 
L 38.28125 72.90625 
L 38.28125 8.296875 
L 54.390625 8.296875 
L 54.390625 0 
L 12.40625 0 
z
" id="DejaVuSans-49"/>
      <path d="M 34.28125 27.484375 
Q 23.390625 27.484375 19.1875 25 
Q 14.984375 22.515625 14.984375 16.5 
Q 14.984375 11.71875 18.140625 8.90625 
Q 21.296875 6.109375 26.703125 6.109375 
Q 34.1875 6.109375 38.703125 11.40625 
Q 43.21875 16.703125 43.21875 25.484375 
L 43.21875 27.484375 
z
M 52.203125 31.203125 
L 52.203125 0 
L 43.21875 0 
L 43.21875 8.296875 
Q 40.140625 3.328125 35.546875 0.953125 
Q 30.953125 -1.421875 24.3125 -1.421875 
Q 15.921875 -1.421875 10.953125 3.296875 
Q 6 8.015625 6 15.921875 
Q 6 25.140625 12.171875 29.828125 
Q 18.359375 34.515625 30.609375 34.515625 
L 43.21875 34.515625 
L 43.21875 35.40625 
Q 43.21875 41.609375 39.140625 45 
Q 35.0625 48.390625 27.6875 48.390625 
Q 23 48.390625 18.546875 47.265625 
Q 14.109375 46.140625 10.015625 43.890625 
L 10.015625 52.203125 
Q 14.9375 54.109375 19.578125 55.046875 
Q 24.21875 56 28.609375 56 
Q 40.484375 56 46.34375 49.84375 
Q 52.203125 43.703125 52.203125 31.203125 
z
" id="DejaVuSans-97"/>
      <path d="M 45.40625 46.390625 
L 45.40625 75.984375 
L 54.390625 75.984375 
L 54.390625 0 
L 45.40625 0 
L 45.40625 8.203125 
Q 42.578125 3.328125 38.25 0.953125 
Q 33.9375 -1.421875 27.875 -1.421875 
Q 17.96875 -1.421875 11.734375 6.484375 
Q 5.515625 14.40625 5.515625 27.296875 
Q 5.515625 40.1875 11.734375 48.09375 
Q 17.96875 56 27.875 56 
Q 33.9375 56 38.25 53.625 
Q 42.578125 51.265625 45.40625 46.390625 
z
M 14.796875 27.296875 
Q 14.796875 17.390625 18.875 11.75 
Q 22.953125 6.109375 30.078125 6.109375 
Q 37.203125 6.109375 41.296875 11.75 
Q 45.40625 17.390625 45.40625 27.296875 
Q 45.40625 37.203125 41.296875 42.84375 
Q 37.203125 48.484375 30.078125 48.484375 
Q 22.953125 48.484375 18.875 42.84375 
Q 14.796875 37.203125 14.796875 27.296875 
z
" id="DejaVuSans-100"/>
      <path d="M 48.6875 27.296875 
Q 48.6875 37.203125 44.609375 42.84375 
Q 40.53125 48.484375 33.40625 48.484375 
Q 26.265625 48.484375 22.1875 42.84375 
Q 18.109375 37.203125 18.109375 27.296875 
Q 18.109375 17.390625 22.1875 11.75 
Q 26.265625 6.109375 33.40625 6.109375 
Q 40.53125 6.109375 44.609375 11.75 
Q 48.6875 17.390625 48.6875 27.296875 
z
M 18.109375 46.390625 
Q 20.953125 51.265625 25.265625 53.625 
Q 29.59375 56 35.59375 56 
Q 45.5625 56 51.78125 48.09375 
Q 58.015625 40.1875 58.015625 27.296875 
Q 58.015625 14.40625 51.78125 6.484375 
Q 45.5625 -1.421875 35.59375 -1.421875 
Q 29.59375 -1.421875 25.265625 0.953125 
Q 20.953125 3.328125 18.109375 8.203125 
L 18.109375 0 
L 9.078125 0 
L 9.078125 75.984375 
L 18.109375 75.984375 
z
" id="DejaVuSans-98"/>
      <path d="M 48.78125 52.59375 
L 48.78125 44.1875 
Q 44.96875 46.296875 41.140625 47.34375 
Q 37.3125 48.390625 33.40625 48.390625 
Q 24.65625 48.390625 19.8125 42.84375 
Q 14.984375 37.3125 14.984375 27.296875 
Q 14.984375 17.28125 19.8125 11.734375 
Q 24.65625 6.203125 33.40625 6.203125 
Q 37.3125 6.203125 41.140625 7.25 
Q 44.96875 8.296875 48.78125 10.40625 
L 48.78125 2.09375 
Q 45.015625 0.34375 40.984375 -0.53125 
Q 36.96875 -1.421875 32.421875 -1.421875 
Q 20.0625 -1.421875 12.78125 6.34375 
Q 5.515625 14.109375 5.515625 27.296875 
Q 5.515625 40.671875 12.859375 48.328125 
Q 20.21875 56 33.015625 56 
Q 37.15625 56 41.109375 55.140625 
Q 45.0625 54.296875 48.78125 52.59375 
z
" id="DejaVuSans-99"/>
      <path d="M 9.078125 75.984375 
L 18.109375 75.984375 
L 18.109375 31.109375 
L 44.921875 54.6875 
L 56.390625 54.6875 
L 27.390625 29.109375 
L 57.625 0 
L 45.90625 0 
L 18.109375 26.703125 
L 18.109375 0 
L 9.078125 0 
z
" id="DejaVuSans-107"/>
     </defs>
     <use xlink:href="#DejaVuSans-72"/>
     <use x="75.195312" xlink:href="#DejaVuSans-73"/>
     <use x="104.6875" xlink:href="#DejaVuSans-70"/>
     <use x="162.207031" xlink:href="#DejaVuSans-49"/>
     <use x="225.830078" xlink:href="#DejaVuSans-97"/>
     <use x="287.109375" xlink:href="#DejaVuSans-32"/>
     <use x="318.896484" xlink:href="#DejaVuSans-70"/>
     <use x="370.916016" xlink:href="#DejaVuSans-101"/>
     <use x="432.439453" xlink:href="#DejaVuSans-101"/>
     <use x="493.962891" xlink:href="#DejaVuSans-100"/>
     <use x="557.439453" xlink:href="#DejaVuSans-98"/>
     <use x="620.916016" xlink:href="#DejaVuSans-97"/>
     <use x="682.195312" xlink:href="#DejaVuSans-99"/>
     <use x="737.175781" xlink:href="#DejaVuSans-107"/>
     <use x="795.085938" xlink:href="#DejaVuSans-32"/>
     <use x="826.873047" xlink:href="#DejaVuSans-72"/>
     <use x="902.068359" xlink:href="#DejaVuSans-66"/>
     <use x="968.921875" xlink:href="#DejaVuSans-83"/>
    </g>
   </g>
   <g id="legend_2">
    <g id="patch_9">
     <path d="M 302.466512 162.866562 
L 408.597547 162.866562 
Q 409.985547 162.866562 409.985547 161.478562 
L 409.985547 121.31765 
Q 409.985547 119.92965 408.597547 119.92965 
L 302.466512 119.92965 
Q 301.078512 119.92965 301.078512 121.31765 
L 301.078512 161.478562 
Q 301.078512 162.866562 302.466512 162.866562 
z
" style="fill:#ffffff;opacity:0.8;stroke:#cccccc;stroke-linejoin:miter;"/>
    </g>
    <g id="line2d_45">
     <path d="M 303.854512 125.549966 
L 317.734512 125.549966 
" style="fill:none;stroke:#56b4e9;stroke-dasharray:2,3.3;stroke-dashoffset:0;stroke-width:2;"/>
    </g>
    <g id="line2d_46"/>
    <g id="text_27">
     <!-- 1% O2 Model fit 2 -->
     <g transform="translate(323.286512 127.978966)scale(0.0694 -0.0694)">
      <use xlink:href="#DejaVuSans-Bold-49"/>
      <use x="69.580078" xlink:href="#DejaVuSans-Bold-37"/>
      <use x="169.775391" xlink:href="#DejaVuSans-Bold-32"/>
      <use x="204.589844" xlink:href="#DejaVuSans-Bold-79"/>
      <use x="289.599609" xlink:href="#DejaVuSans-Bold-50"/>
      <use x="359.179688" xlink:href="#DejaVuSans-Bold-32"/>
      <use x="393.994141" xlink:href="#DejaVuSans-Bold-77"/>
      <use x="493.505859" xlink:href="#DejaVuSans-Bold-111"/>
      <use x="562.207031" xlink:href="#DejaVuSans-Bold-100"/>
      <use x="633.789062" xlink:href="#DejaVuSans-Bold-101"/>
      <use x="701.611328" xlink:href="#DejaVuSans-Bold-108"/>
      <use x="735.888672" xlink:href="#DejaVuSans-Bold-32"/>
      <use x="770.703125" xlink:href="#DejaVuSans-Bold-102"/>
      <use x="814.208984" xlink:href="#DejaVuSans-Bold-105"/>
      <use x="848.486328" xlink:href="#DejaVuSans-Bold-116"/>
      <use x="896.289062" xlink:href="#DejaVuSans-Bold-32"/>
      <use x="931.103516" xlink:href="#DejaVuSans-Bold-50"/>
     </g>
    </g>
    <g id="line2d_47">
     <path d="M 303.854512 135.736584 
L 317.734512 135.736584 
" style="fill:none;stroke:#000000;stroke-dasharray:2,3.3;stroke-dashoffset:0;stroke-width:2;"/>
    </g>
    <g id="line2d_48"/>
    <g id="text_28">
     <!-- 21% O2 Model fit 2 -->
     <g transform="translate(323.286512 138.165584)scale(0.0694 -0.0694)">
      <use xlink:href="#DejaVuSans-Bold-50"/>
      <use x="69.580078" xlink:href="#DejaVuSans-Bold-49"/>
      <use x="139.160156" xlink:href="#DejaVuSans-Bold-37"/>
      <use x="239.355469" xlink:href="#DejaVuSans-Bold-32"/>
      <use x="274.169922" xlink:href="#DejaVuSans-Bold-79"/>
      <use x="359.179688" xlink:href="#DejaVuSans-Bold-50"/>
      <use x="428.759766" xlink:href="#DejaVuSans-Bold-32"/>
      <use x="463.574219" xlink:href="#DejaVuSans-Bold-77"/>
      <use x="563.085938" xlink:href="#DejaVuSans-Bold-111"/>
      <use x="631.787109" xlink:href="#DejaVuSans-Bold-100"/>
      <use x="703.369141" xlink:href="#DejaVuSans-Bold-101"/>
      <use x="771.191406" xlink:href="#DejaVuSans-Bold-108"/>
      <use x="805.46875" xlink:href="#DejaVuSans-Bold-32"/>
      <use x="840.283203" xlink:href="#DejaVuSans-Bold-102"/>
      <use x="883.789062" xlink:href="#DejaVuSans-Bold-105"/>
      <use x="918.066406" xlink:href="#DejaVuSans-Bold-116"/>
      <use x="965.869141" xlink:href="#DejaVuSans-Bold-32"/>
      <use x="1000.683594" xlink:href="#DejaVuSans-Bold-50"/>
     </g>
    </g>
    <g id="LineCollection_7">
     <path d="M 310.794512 149.393203 
L 310.794512 142.453203 
" style="fill:none;stroke:#56b4e9;stroke-width:2;"/>
    </g>
    <g id="line2d_49">
     <g>
      <use style="fill:#56b4e9;stroke:#56b4e9;" x="310.794512" xlink:href="#m3ab5666b19" y="149.393203"/>
     </g>
    </g>
    <g id="line2d_50">
     <g>
      <use style="fill:#56b4e9;stroke:#56b4e9;" x="310.794512" xlink:href="#m3ab5666b19" y="142.453203"/>
     </g>
    </g>
    <g id="line2d_51"/>
    <g id="line2d_52">
     <g>
      <use style="fill-opacity:0;stroke:#56b4e9;" x="310.794512" xlink:href="#m6273cbabbd" y="145.923203"/>
     </g>
    </g>
    <g id="text_29">
     <!-- 1% O2 Training data -->
     <g transform="translate(323.286512 148.352203)scale(0.0694 -0.0694)">
      <use xlink:href="#DejaVuSans-Bold-49"/>
      <use x="69.580078" xlink:href="#DejaVuSans-Bold-37"/>
      <use x="169.775391" xlink:href="#DejaVuSans-Bold-32"/>
      <use x="204.589844" xlink:href="#DejaVuSans-Bold-79"/>
      <use x="289.599609" xlink:href="#DejaVuSans-Bold-50"/>
      <use x="359.179688" xlink:href="#DejaVuSans-Bold-32"/>
      <use x="393.994141" xlink:href="#DejaVuSans-Bold-84"/>
      <use x="451.207031" xlink:href="#DejaVuSans-Bold-114"/>
      <use x="500.523438" xlink:href="#DejaVuSans-Bold-97"/>
      <use x="568.003906" xlink:href="#DejaVuSans-Bold-105"/>
      <use x="602.28125" xlink:href="#DejaVuSans-Bold-110"/>
      <use x="673.472656" xlink:href="#DejaVuSans-Bold-105"/>
      <use x="707.75" xlink:href="#DejaVuSans-Bold-110"/>
      <use x="778.941406" xlink:href="#DejaVuSans-Bold-103"/>
      <use x="850.523438" xlink:href="#DejaVuSans-Bold-32"/>
      <use x="885.337891" xlink:href="#DejaVuSans-Bold-100"/>
      <use x="956.919922" xlink:href="#DejaVuSans-Bold-97"/>
      <use x="1024.400391" xlink:href="#DejaVuSans-Bold-116"/>
      <use x="1072.203125" xlink:href="#DejaVuSans-Bold-97"/>
     </g>
    </g>
    <g id="LineCollection_8">
     <path d="M 310.794512 159.634041 
L 310.794512 152.694041 
" style="fill:none;stroke:#000000;stroke-width:2;"/>
    </g>
    <g id="line2d_53">
     <g>
      <use style="stroke:#000000;" x="310.794512" xlink:href="#ma21c457691" y="159.634041"/>
     </g>
    </g>
    <g id="line2d_54">
     <g>
      <use style="stroke:#000000;" x="310.794512" xlink:href="#ma21c457691" y="152.694041"/>
     </g>
    </g>
    <g id="line2d_55"/>
    <g id="line2d_56">
     <g>
      <use style="fill-opacity:0;stroke:#000000;" x="310.794512" xlink:href="#m7a814c1df5" y="156.164041"/>
     </g>
    </g>
    <g id="text_30">
     <!-- 21% O2 Training data -->
     <g transform="translate(323.286512 158.593041)scale(0.0694 -0.0694)">
      <use xlink:href="#DejaVuSans-Bold-50"/>
      <use x="69.580078" xlink:href="#DejaVuSans-Bold-49"/>
      <use x="139.160156" xlink:href="#DejaVuSans-Bold-37"/>
      <use x="239.355469" xlink:href="#DejaVuSans-Bold-32"/>
      <use x="274.169922" xlink:href="#DejaVuSans-Bold-79"/>
      <use x="359.179688" xlink:href="#DejaVuSans-Bold-50"/>
      <use x="428.759766" xlink:href="#DejaVuSans-Bold-32"/>
      <use x="463.574219" xlink:href="#DejaVuSans-Bold-84"/>
      <use x="520.787109" xlink:href="#DejaVuSans-Bold-114"/>
      <use x="570.103516" xlink:href="#DejaVuSans-Bold-97"/>
      <use x="637.583984" xlink:href="#DejaVuSans-Bold-105"/>
      <use x="671.861328" xlink:href="#DejaVuSans-Bold-110"/>
      <use x="743.052734" xlink:href="#DejaVuSans-Bold-105"/>
      <use x="777.330078" xlink:href="#DejaVuSans-Bold-110"/>
      <use x="848.521484" xlink:href="#DejaVuSans-Bold-103"/>
      <use x="920.103516" xlink:href="#DejaVuSans-Bold-32"/>
      <use x="954.917969" xlink:href="#DejaVuSans-Bold-100"/>
      <use x="1026.5" xlink:href="#DejaVuSans-Bold-97"/>
      <use x="1093.980469" xlink:href="#DejaVuSans-Bold-116"/>
      <use x="1141.783203" xlink:href="#DejaVuSans-Bold-97"/>
     </g>
    </g>
   </g>
  </g>
  <g id="axes_3">
   <g id="patch_10">
    <path d="M 479.901094 166.336562 
L 626.642188 166.336562 
L 626.642188 28.479687 
L 479.901094 28.479687 
z
" style="fill:#ffffff;"/>
   </g>
   <g id="matplotlib.axis_5">
    <g id="xtick_7">
     <g id="line2d_57">
      <g>
       <use style="stroke:#000000;stroke-width:0.8;" x="486.571144" xlink:href="#m6ddd6069d0" y="166.336562"/>
      </g>
     </g>
     <g id="text_31">
      <!-- 0 -->
      <g transform="translate(483.092237 180.935)scale(0.1 -0.1)">
       <use xlink:href="#DejaVuSans-Bold-48"/>
      </g>
     </g>
    </g>
    <g id="xtick_8">
     <g id="line2d_58">
      <g>
       <use style="stroke:#000000;stroke-width:0.8;" x="542.154891" xlink:href="#m6ddd6069d0" y="166.336562"/>
      </g>
     </g>
     <g id="text_32">
      <!-- 50 -->
      <g transform="translate(535.197079 180.935)scale(0.1 -0.1)">
       <use xlink:href="#DejaVuSans-Bold-53"/>
       <use x="69.580078" xlink:href="#DejaVuSans-Bold-48"/>
      </g>
     </g>
    </g>
    <g id="xtick_9">
     <g id="line2d_59">
      <g>
       <use style="stroke:#000000;stroke-width:0.8;" x="597.738639" xlink:href="#m6ddd6069d0" y="166.336562"/>
      </g>
     </g>
     <g id="text_33">
      <!-- 100 -->
      <g transform="translate(587.30192 180.935)scale(0.1 -0.1)">
       <use xlink:href="#DejaVuSans-Bold-49"/>
       <use x="69.580078" xlink:href="#DejaVuSans-Bold-48"/>
       <use x="139.160156" xlink:href="#DejaVuSans-Bold-48"/>
      </g>
     </g>
    </g>
    <g id="text_34">
     <!-- Time Post-Plating (hours) -->
     <g transform="translate(466.500391 202.132812)scale(0.12 -0.12)">
      <use xlink:href="#DejaVuSans-Bold-84"/>
      <use x="68.212891" xlink:href="#DejaVuSans-Bold-105"/>
      <use x="102.490234" xlink:href="#DejaVuSans-Bold-109"/>
      <use x="206.689453" xlink:href="#DejaVuSans-Bold-101"/>
      <use x="274.511719" xlink:href="#DejaVuSans-Bold-32"/>
      <use x="309.326172" xlink:href="#DejaVuSans-Bold-80"/>
      <use x="382.617188" xlink:href="#DejaVuSans-Bold-111"/>
      <use x="451.318359" xlink:href="#DejaVuSans-Bold-115"/>
      <use x="510.839844" xlink:href="#DejaVuSans-Bold-116"/>
      <use x="558.642578" xlink:href="#DejaVuSans-Bold-45"/>
      <use x="600.146484" xlink:href="#DejaVuSans-Bold-80"/>
      <use x="673.4375" xlink:href="#DejaVuSans-Bold-108"/>
      <use x="707.714844" xlink:href="#DejaVuSans-Bold-97"/>
      <use x="775.195312" xlink:href="#DejaVuSans-Bold-116"/>
      <use x="822.998047" xlink:href="#DejaVuSans-Bold-105"/>
      <use x="857.275391" xlink:href="#DejaVuSans-Bold-110"/>
      <use x="928.466797" xlink:href="#DejaVuSans-Bold-103"/>
      <use x="1000.048828" xlink:href="#DejaVuSans-Bold-32"/>
      <use x="1034.863281" xlink:href="#DejaVuSans-Bold-40"/>
      <use x="1080.566406" xlink:href="#DejaVuSans-Bold-104"/>
      <use x="1151.757812" xlink:href="#DejaVuSans-Bold-111"/>
      <use x="1220.458984" xlink:href="#DejaVuSans-Bold-117"/>
      <use x="1291.650391" xlink:href="#DejaVuSans-Bold-114"/>
      <use x="1340.966797" xlink:href="#DejaVuSans-Bold-115"/>
      <use x="1400.488281" xlink:href="#DejaVuSans-Bold-41"/>
     </g>
    </g>
   </g>
   <g id="matplotlib.axis_6">
    <g id="ytick_11">
     <g id="line2d_60">
      <g>
       <use style="stroke:#000000;stroke-width:0.8;" x="479.901094" xlink:href="#m3c1413916b" y="162.18451"/>
      </g>
     </g>
     <g id="text_35">
      <!-- 0.0 -->
      <g transform="translate(455.187032 165.983728)scale(0.1 -0.1)">
       <use xlink:href="#DejaVuSans-Bold-48"/>
       <use x="69.580078" xlink:href="#DejaVuSans-Bold-46"/>
       <use x="107.568359" xlink:href="#DejaVuSans-Bold-48"/>
      </g>
     </g>
    </g>
    <g id="ytick_12">
     <g id="line2d_61">
      <g>
       <use style="stroke:#000000;stroke-width:0.8;" x="479.901094" xlink:href="#m3c1413916b" y="137.929356"/>
      </g>
     </g>
     <g id="text_36">
      <!-- 0.5 -->
      <g transform="translate(455.187032 141.728574)scale(0.1 -0.1)">
       <use xlink:href="#DejaVuSans-Bold-48"/>
       <use x="69.580078" xlink:href="#DejaVuSans-Bold-46"/>
       <use x="107.568359" xlink:href="#DejaVuSans-Bold-53"/>
      </g>
     </g>
    </g>
    <g id="ytick_13">
     <g id="line2d_62">
      <g>
       <use style="stroke:#000000;stroke-width:0.8;" x="479.901094" xlink:href="#m3c1413916b" y="113.674201"/>
      </g>
     </g>
     <g id="text_37">
      <!-- 1.0 -->
      <g transform="translate(455.187032 117.47342)scale(0.1 -0.1)">
       <use xlink:href="#DejaVuSans-Bold-49"/>
       <use x="69.580078" xlink:href="#DejaVuSans-Bold-46"/>
       <use x="107.568359" xlink:href="#DejaVuSans-Bold-48"/>
      </g>
     </g>
    </g>
    <g id="ytick_14">
     <g id="line2d_63">
      <g>
       <use style="stroke:#000000;stroke-width:0.8;" x="479.901094" xlink:href="#m3c1413916b" y="89.419047"/>
      </g>
     </g>
     <g id="text_38">
      <!-- 1.5 -->
      <g transform="translate(455.187032 93.218266)scale(0.1 -0.1)">
       <use xlink:href="#DejaVuSans-Bold-49"/>
       <use x="69.580078" xlink:href="#DejaVuSans-Bold-46"/>
       <use x="107.568359" xlink:href="#DejaVuSans-Bold-53"/>
      </g>
     </g>
    </g>
    <g id="ytick_15">
     <g id="line2d_64">
      <g>
       <use style="stroke:#000000;stroke-width:0.8;" x="479.901094" xlink:href="#m3c1413916b" y="65.163893"/>
      </g>
     </g>
     <g id="text_39">
      <!-- 2.0 -->
      <g transform="translate(455.187032 68.963112)scale(0.1 -0.1)">
       <use xlink:href="#DejaVuSans-Bold-50"/>
       <use x="69.580078" xlink:href="#DejaVuSans-Bold-46"/>
       <use x="107.568359" xlink:href="#DejaVuSans-Bold-48"/>
      </g>
     </g>
    </g>
    <g id="ytick_16">
     <g id="line2d_65">
      <g>
       <use style="stroke:#000000;stroke-width:0.8;" x="479.901094" xlink:href="#m3c1413916b" y="40.908739"/>
      </g>
     </g>
     <g id="text_40">
      <!-- 2.5 -->
      <g transform="translate(455.187032 44.707958)scale(0.1 -0.1)">
       <use xlink:href="#DejaVuSans-Bold-50"/>
       <use x="69.580078" xlink:href="#DejaVuSans-Bold-46"/>
       <use x="107.568359" xlink:href="#DejaVuSans-Bold-53"/>
      </g>
     </g>
    </g>
    <g id="text_41">
     <!-- Relative DsRE2 Expression -->
     <g transform="translate(442.691407 187.61625)rotate(-90)scale(0.12 -0.12)">
      <use xlink:href="#DejaVuSans-Bold-82"/>
      <use x="77.001953" xlink:href="#DejaVuSans-Bold-101"/>
      <use x="144.824219" xlink:href="#DejaVuSans-Bold-108"/>
      <use x="179.101562" xlink:href="#DejaVuSans-Bold-97"/>
      <use x="246.582031" xlink:href="#DejaVuSans-Bold-116"/>
      <use x="294.384766" xlink:href="#DejaVuSans-Bold-105"/>
      <use x="328.662109" xlink:href="#DejaVuSans-Bold-118"/>
      <use x="393.847656" xlink:href="#DejaVuSans-Bold-101"/>
      <use x="461.669922" xlink:href="#DejaVuSans-Bold-32"/>
      <use x="496.484375" xlink:href="#DejaVuSans-Bold-68"/>
      <use x="579.492188" xlink:href="#DejaVuSans-Bold-115"/>
      <use x="639.013672" xlink:href="#DejaVuSans-Bold-82"/>
      <use x="716.015625" xlink:href="#DejaVuSans-Bold-69"/>
      <use x="784.326172" xlink:href="#DejaVuSans-Bold-50"/>
      <use x="853.90625" xlink:href="#DejaVuSans-Bold-32"/>
      <use x="888.720703" xlink:href="#DejaVuSans-Bold-69"/>
      <use x="957.03125" xlink:href="#DejaVuSans-Bold-120"/>
      <use x="1021.533203" xlink:href="#DejaVuSans-Bold-112"/>
      <use x="1093.115234" xlink:href="#DejaVuSans-Bold-114"/>
      <use x="1142.431641" xlink:href="#DejaVuSans-Bold-101"/>
      <use x="1210.253906" xlink:href="#DejaVuSans-Bold-115"/>
      <use x="1269.775391" xlink:href="#DejaVuSans-Bold-115"/>
      <use x="1329.296875" xlink:href="#DejaVuSans-Bold-105"/>
      <use x="1363.574219" xlink:href="#DejaVuSans-Bold-111"/>
      <use x="1432.275391" xlink:href="#DejaVuSans-Bold-110"/>
     </g>
    </g>
   </g>
   <g id="LineCollection_9">
    <path clip-path="url(#p1b7d582ef9)" d="M 486.571144 160.070341 
L 486.571144 159.932349 
" style="fill:none;stroke:#56b4e9;stroke-width:2;"/>
    <path clip-path="url(#p1b7d582ef9)" d="M 513.251343 118.056662 
L 513.251343 116.399033 
" style="fill:none;stroke:#56b4e9;stroke-width:2;"/>
    <path clip-path="url(#p1b7d582ef9)" d="M 539.931541 55.339234 
L 539.931541 34.745909 
" style="fill:none;stroke:#56b4e9;stroke-width:2;"/>
    <path clip-path="url(#p1b7d582ef9)" d="M 566.61174 52.161948 
L 566.61174 45.277098 
" style="fill:none;stroke:#56b4e9;stroke-width:2;"/>
    <path clip-path="url(#p1b7d582ef9)" d="M 593.291939 64.024875 
L 593.291939 54.208146 
" style="fill:none;stroke:#56b4e9;stroke-width:2;"/>
    <path clip-path="url(#p1b7d582ef9)" d="M 619.972138 73.508398 
L 619.972138 52.446412 
" style="fill:none;stroke:#56b4e9;stroke-width:2;"/>
   </g>
   <g id="LineCollection_10">
    <path clip-path="url(#p1b7d582ef9)" d="M 486.571144 159.003524 
L 486.571144 158.892913 
" style="fill:none;stroke:#000000;stroke-width:2;"/>
   </g>
   <g id="line2d_66">
    <g clip-path="url(#p1b7d582ef9)">
     <use style="fill:#56b4e9;stroke:#56b4e9;" x="486.571144" xlink:href="#m3ab5666b19" y="160.070341"/>
     <use style="fill:#56b4e9;stroke:#56b4e9;" x="513.251343" xlink:href="#m3ab5666b19" y="118.056662"/>
     <use style="fill:#56b4e9;stroke:#56b4e9;" x="539.931541" xlink:href="#m3ab5666b19" y="55.339234"/>
     <use style="fill:#56b4e9;stroke:#56b4e9;" x="566.61174" xlink:href="#m3ab5666b19" y="52.161948"/>
     <use style="fill:#56b4e9;stroke:#56b4e9;" x="593.291939" xlink:href="#m3ab5666b19" y="64.024875"/>
     <use style="fill:#56b4e9;stroke:#56b4e9;" x="619.972138" xlink:href="#m3ab5666b19" y="73.508398"/>
    </g>
   </g>
   <g id="line2d_67">
    <g clip-path="url(#p1b7d582ef9)">
     <use style="fill:#56b4e9;stroke:#56b4e9;" x="486.571144" xlink:href="#m3ab5666b19" y="159.932349"/>
     <use style="fill:#56b4e9;stroke:#56b4e9;" x="513.251343" xlink:href="#m3ab5666b19" y="116.399033"/>
     <use style="fill:#56b4e9;stroke:#56b4e9;" x="539.931541" xlink:href="#m3ab5666b19" y="34.745909"/>
     <use style="fill:#56b4e9;stroke:#56b4e9;" x="566.61174" xlink:href="#m3ab5666b19" y="45.277098"/>
     <use style="fill:#56b4e9;stroke:#56b4e9;" x="593.291939" xlink:href="#m3ab5666b19" y="54.208146"/>
     <use style="fill:#56b4e9;stroke:#56b4e9;" x="619.972138" xlink:href="#m3ab5666b19" y="52.446412"/>
    </g>
   </g>
   <g id="line2d_68">
    <g clip-path="url(#p1b7d582ef9)">
     <use style="stroke:#000000;" x="486.571144" xlink:href="#ma21c457691" y="159.003524"/>
    </g>
   </g>
   <g id="line2d_69">
    <g clip-path="url(#p1b7d582ef9)">
     <use style="stroke:#000000;" x="486.571144" xlink:href="#ma21c457691" y="158.892913"/>
    </g>
   </g>
   <g id="line2d_70">
    <path clip-path="url(#p1b7d582ef9)" d="M 486.571144 152.711753 
L 513.251343 105.150546 
L 539.931541 74.900245 
L 566.61174 59.875128 
L 593.291939 52.384116 
L 619.972138 48.64928 
" style="fill:none;stroke:#56b4e9;stroke-dasharray:2,3.3;stroke-dashoffset:0;stroke-width:2;"/>
   </g>
   <g id="line2d_71">
    <path clip-path="url(#p1b7d582ef9)" d="M 486.571144 152.711751 
" style="fill:none;stroke:#000000;stroke-dasharray:2,3.3;stroke-dashoffset:0;stroke-width:2;"/>
   </g>
   <g id="line2d_72">
    <g clip-path="url(#p1b7d582ef9)">
     <use style="fill-opacity:0;stroke:#56b4e9;" x="486.571144" xlink:href="#m6273cbabbd" y="160.001345"/>
     <use style="fill-opacity:0;stroke:#56b4e9;" x="513.251343" xlink:href="#m6273cbabbd" y="117.227847"/>
     <use style="fill-opacity:0;stroke:#56b4e9;" x="539.931541" xlink:href="#m6273cbabbd" y="45.042572"/>
     <use style="fill-opacity:0;stroke:#56b4e9;" x="566.61174" xlink:href="#m6273cbabbd" y="48.719523"/>
     <use style="fill-opacity:0;stroke:#56b4e9;" x="593.291939" xlink:href="#m6273cbabbd" y="59.11651"/>
     <use style="fill-opacity:0;stroke:#56b4e9;" x="619.972138" xlink:href="#m6273cbabbd" y="62.977405"/>
    </g>
   </g>
   <g id="line2d_73">
    <g clip-path="url(#p1b7d582ef9)">
     <use style="fill-opacity:0;stroke:#000000;" x="486.571144" xlink:href="#m7a814c1df5" y="158.948218"/>
    </g>
   </g>
   <g id="patch_11">
    <path d="M 479.901094 166.336562 
L 479.901094 28.479687 
" style="fill:none;stroke:#000000;stroke-linecap:square;stroke-linejoin:miter;stroke-width:0.8;"/>
   </g>
   <g id="patch_12">
    <path d="M 479.901094 166.336562 
L 626.642188 166.336562 
" style="fill:none;stroke:#000000;stroke-linecap:square;stroke-linejoin:miter;stroke-width:0.8;"/>
   </g>
   <g id="text_42">
    <!-- HIF2a Feedback HBS -->
    <g transform="translate(470.675391 22.479687)scale(0.16 -0.16)">
     <defs>
      <path d="M 19.1875 8.296875 
L 53.609375 8.296875 
L 53.609375 0 
L 7.328125 0 
L 7.328125 8.296875 
Q 12.9375 14.109375 22.625 23.890625 
Q 32.328125 33.6875 34.8125 36.53125 
Q 39.546875 41.84375 41.421875 45.53125 
Q 43.3125 49.21875 43.3125 52.78125 
Q 43.3125 58.59375 39.234375 62.25 
Q 35.15625 65.921875 28.609375 65.921875 
Q 23.96875 65.921875 18.8125 64.3125 
Q 13.671875 62.703125 7.8125 59.421875 
L 7.8125 69.390625 
Q 13.765625 71.78125 18.9375 73 
Q 24.125 74.21875 28.421875 74.21875 
Q 39.75 74.21875 46.484375 68.546875 
Q 53.21875 62.890625 53.21875 53.421875 
Q 53.21875 48.921875 51.53125 44.890625 
Q 49.859375 40.875 45.40625 35.40625 
Q 44.1875 33.984375 37.640625 27.21875 
Q 31.109375 20.453125 19.1875 8.296875 
z
" id="DejaVuSans-50"/>
     </defs>
     <use xlink:href="#DejaVuSans-72"/>
     <use x="75.195312" xlink:href="#DejaVuSans-73"/>
     <use x="104.6875" xlink:href="#DejaVuSans-70"/>
     <use x="162.207031" xlink:href="#DejaVuSans-50"/>
     <use x="225.830078" xlink:href="#DejaVuSans-97"/>
     <use x="287.109375" xlink:href="#DejaVuSans-32"/>
     <use x="318.896484" xlink:href="#DejaVuSans-70"/>
     <use x="370.916016" xlink:href="#DejaVuSans-101"/>
     <use x="432.439453" xlink:href="#DejaVuSans-101"/>
     <use x="493.962891" xlink:href="#DejaVuSans-100"/>
     <use x="557.439453" xlink:href="#DejaVuSans-98"/>
     <use x="620.916016" xlink:href="#DejaVuSans-97"/>
     <use x="682.195312" xlink:href="#DejaVuSans-99"/>
     <use x="737.175781" xlink:href="#DejaVuSans-107"/>
     <use x="795.085938" xlink:href="#DejaVuSans-32"/>
     <use x="826.873047" xlink:href="#DejaVuSans-72"/>
     <use x="902.068359" xlink:href="#DejaVuSans-66"/>
     <use x="968.921875" xlink:href="#DejaVuSans-83"/>
    </g>
   </g>
   <g id="legend_3">
    <g id="patch_13">
     <path d="M 515.653153 162.866562 
L 621.784188 162.866562 
Q 623.172188 162.866562 623.172188 161.478562 
L 623.172188 121.31765 
Q 623.172188 119.92965 621.784188 119.92965 
L 515.653153 119.92965 
Q 514.265153 119.92965 514.265153 121.31765 
L 514.265153 161.478562 
Q 514.265153 162.866562 515.653153 162.866562 
z
" style="fill:#ffffff;opacity:0.8;stroke:#cccccc;stroke-linejoin:miter;"/>
    </g>
    <g id="line2d_74">
     <path d="M 517.041153 125.549966 
L 530.921153 125.549966 
" style="fill:none;stroke:#56b4e9;stroke-dasharray:2,3.3;stroke-dashoffset:0;stroke-width:2;"/>
    </g>
    <g id="line2d_75"/>
    <g id="text_43">
     <!-- 1% O2 Model fit 2 -->
     <g transform="translate(536.473153 127.978966)scale(0.0694 -0.0694)">
      <use xlink:href="#DejaVuSans-Bold-49"/>
      <use x="69.580078" xlink:href="#DejaVuSans-Bold-37"/>
      <use x="169.775391" xlink:href="#DejaVuSans-Bold-32"/>
      <use x="204.589844" xlink:href="#DejaVuSans-Bold-79"/>
      <use x="289.599609" xlink:href="#DejaVuSans-Bold-50"/>
      <use x="359.179688" xlink:href="#DejaVuSans-Bold-32"/>
      <use x="393.994141" xlink:href="#DejaVuSans-Bold-77"/>
      <use x="493.505859" xlink:href="#DejaVuSans-Bold-111"/>
      <use x="562.207031" xlink:href="#DejaVuSans-Bold-100"/>
      <use x="633.789062" xlink:href="#DejaVuSans-Bold-101"/>
      <use x="701.611328" xlink:href="#DejaVuSans-Bold-108"/>
      <use x="735.888672" xlink:href="#DejaVuSans-Bold-32"/>
      <use x="770.703125" xlink:href="#DejaVuSans-Bold-102"/>
      <use x="814.208984" xlink:href="#DejaVuSans-Bold-105"/>
      <use x="848.486328" xlink:href="#DejaVuSans-Bold-116"/>
      <use x="896.289062" xlink:href="#DejaVuSans-Bold-32"/>
      <use x="931.103516" xlink:href="#DejaVuSans-Bold-50"/>
     </g>
    </g>
    <g id="line2d_76">
     <path d="M 517.041153 135.736584 
L 530.921153 135.736584 
" style="fill:none;stroke:#000000;stroke-dasharray:2,3.3;stroke-dashoffset:0;stroke-width:2;"/>
    </g>
    <g id="line2d_77"/>
    <g id="text_44">
     <!-- 21% O2 Model fit 2 -->
     <g transform="translate(536.473153 138.165584)scale(0.0694 -0.0694)">
      <use xlink:href="#DejaVuSans-Bold-50"/>
      <use x="69.580078" xlink:href="#DejaVuSans-Bold-49"/>
      <use x="139.160156" xlink:href="#DejaVuSans-Bold-37"/>
      <use x="239.355469" xlink:href="#DejaVuSans-Bold-32"/>
      <use x="274.169922" xlink:href="#DejaVuSans-Bold-79"/>
      <use x="359.179688" xlink:href="#DejaVuSans-Bold-50"/>
      <use x="428.759766" xlink:href="#DejaVuSans-Bold-32"/>
      <use x="463.574219" xlink:href="#DejaVuSans-Bold-77"/>
      <use x="563.085938" xlink:href="#DejaVuSans-Bold-111"/>
      <use x="631.787109" xlink:href="#DejaVuSans-Bold-100"/>
      <use x="703.369141" xlink:href="#DejaVuSans-Bold-101"/>
      <use x="771.191406" xlink:href="#DejaVuSans-Bold-108"/>
      <use x="805.46875" xlink:href="#DejaVuSans-Bold-32"/>
      <use x="840.283203" xlink:href="#DejaVuSans-Bold-102"/>
      <use x="883.789062" xlink:href="#DejaVuSans-Bold-105"/>
      <use x="918.066406" xlink:href="#DejaVuSans-Bold-116"/>
      <use x="965.869141" xlink:href="#DejaVuSans-Bold-32"/>
      <use x="1000.683594" xlink:href="#DejaVuSans-Bold-50"/>
     </g>
    </g>
    <g id="LineCollection_11">
     <path d="M 523.981153 149.393203 
L 523.981153 142.453203 
" style="fill:none;stroke:#56b4e9;stroke-width:2;"/>
    </g>
    <g id="line2d_78">
     <g>
      <use style="fill:#56b4e9;stroke:#56b4e9;" x="523.981153" xlink:href="#m3ab5666b19" y="149.393203"/>
     </g>
    </g>
    <g id="line2d_79">
     <g>
      <use style="fill:#56b4e9;stroke:#56b4e9;" x="523.981153" xlink:href="#m3ab5666b19" y="142.453203"/>
     </g>
    </g>
    <g id="line2d_80"/>
    <g id="line2d_81">
     <g>
      <use style="fill-opacity:0;stroke:#56b4e9;" x="523.981153" xlink:href="#m6273cbabbd" y="145.923203"/>
     </g>
    </g>
    <g id="text_45">
     <!-- 1% O2 Training data -->
     <g transform="translate(536.473153 148.352203)scale(0.0694 -0.0694)">
      <use xlink:href="#DejaVuSans-Bold-49"/>
      <use x="69.580078" xlink:href="#DejaVuSans-Bold-37"/>
      <use x="169.775391" xlink:href="#DejaVuSans-Bold-32"/>
      <use x="204.589844" xlink:href="#DejaVuSans-Bold-79"/>
      <use x="289.599609" xlink:href="#DejaVuSans-Bold-50"/>
      <use x="359.179688" xlink:href="#DejaVuSans-Bold-32"/>
      <use x="393.994141" xlink:href="#DejaVuSans-Bold-84"/>
      <use x="451.207031" xlink:href="#DejaVuSans-Bold-114"/>
      <use x="500.523438" xlink:href="#DejaVuSans-Bold-97"/>
      <use x="568.003906" xlink:href="#DejaVuSans-Bold-105"/>
      <use x="602.28125" xlink:href="#DejaVuSans-Bold-110"/>
      <use x="673.472656" xlink:href="#DejaVuSans-Bold-105"/>
      <use x="707.75" xlink:href="#DejaVuSans-Bold-110"/>
      <use x="778.941406" xlink:href="#DejaVuSans-Bold-103"/>
      <use x="850.523438" xlink:href="#DejaVuSans-Bold-32"/>
      <use x="885.337891" xlink:href="#DejaVuSans-Bold-100"/>
      <use x="956.919922" xlink:href="#DejaVuSans-Bold-97"/>
      <use x="1024.400391" xlink:href="#DejaVuSans-Bold-116"/>
      <use x="1072.203125" xlink:href="#DejaVuSans-Bold-97"/>
     </g>
    </g>
    <g id="LineCollection_12">
     <path d="M 523.981153 159.634041 
L 523.981153 152.694041 
" style="fill:none;stroke:#000000;stroke-width:2;"/>
    </g>
    <g id="line2d_82">
     <g>
      <use style="stroke:#000000;" x="523.981153" xlink:href="#ma21c457691" y="159.634041"/>
     </g>
    </g>
    <g id="line2d_83">
     <g>
      <use style="stroke:#000000;" x="523.981153" xlink:href="#ma21c457691" y="152.694041"/>
     </g>
    </g>
    <g id="line2d_84"/>
    <g id="line2d_85">
     <g>
      <use style="fill-opacity:0;stroke:#000000;" x="523.981153" xlink:href="#m7a814c1df5" y="156.164041"/>
     </g>
    </g>
    <g id="text_46">
     <!-- 21% O2 Training data -->
     <g transform="translate(536.473153 158.593041)scale(0.0694 -0.0694)">
      <use xlink:href="#DejaVuSans-Bold-50"/>
      <use x="69.580078" xlink:href="#DejaVuSans-Bold-49"/>
      <use x="139.160156" xlink:href="#DejaVuSans-Bold-37"/>
      <use x="239.355469" xlink:href="#DejaVuSans-Bold-32"/>
      <use x="274.169922" xlink:href="#DejaVuSans-Bold-79"/>
      <use x="359.179688" xlink:href="#DejaVuSans-Bold-50"/>
      <use x="428.759766" xlink:href="#DejaVuSans-Bold-32"/>
      <use x="463.574219" xlink:href="#DejaVuSans-Bold-84"/>
      <use x="520.787109" xlink:href="#DejaVuSans-Bold-114"/>
      <use x="570.103516" xlink:href="#DejaVuSans-Bold-97"/>
      <use x="637.583984" xlink:href="#DejaVuSans-Bold-105"/>
      <use x="671.861328" xlink:href="#DejaVuSans-Bold-110"/>
      <use x="743.052734" xlink:href="#DejaVuSans-Bold-105"/>
      <use x="777.330078" xlink:href="#DejaVuSans-Bold-110"/>
      <use x="848.521484" xlink:href="#DejaVuSans-Bold-103"/>
      <use x="920.103516" xlink:href="#DejaVuSans-Bold-32"/>
      <use x="954.917969" xlink:href="#DejaVuSans-Bold-100"/>
      <use x="1026.5" xlink:href="#DejaVuSans-Bold-97"/>
      <use x="1093.980469" xlink:href="#DejaVuSans-Bold-116"/>
      <use x="1141.783203" xlink:href="#DejaVuSans-Bold-97"/>
     </g>
    </g>
   </g>
  </g>
 </g>
 <defs>
  <clipPath id="pfdee33f9b8">
   <rect height="137.856875" width="146.741093" x="53.527813" y="28.479687"/>
  </clipPath>
  <clipPath id="pd5e617cde3">
   <rect height="137.856875" width="146.741093" x="266.714453" y="28.479687"/>
  </clipPath>
  <clipPath id="p1b7d582ef9">
   <rect height="137.856875" width="146.741093" x="479.901094" y="28.479687"/>
  </clipPath>
 </defs>
</svg>
